<svg xmlns="http://www.w3.org/2000/svg" width="38.667" height="40" viewBox="0 0 38.667 40">
  <g id="img57" transform="translate(-24 -16)">
    <path id="Path_1005958" data-name="Path 1005958" d="M80.667,48h-24a.667.667,0,0,0-.667.667v4a.667.667,0,0,0,.667.667h24a.667.667,0,0,0,.667-.667v-4A.667.667,0,0,0,80.667,48ZM80,52H57.333V49.333H80Z" transform="translate(-29.333 -29.333)" fill="#283760"/>
    <path id="Path_1005959" data-name="Path 1005959" d="M234.667,144h-10a.667.667,0,0,0,0,1.333h10a.667.667,0,1,0,0-1.333Z" transform="translate(-183.333 -117.333)" fill="#283760"/>
    <path id="Path_1005960" data-name="Path 1005960" d="M234.667,176h-10a.667.667,0,0,0,0,1.333h10a.667.667,0,1,0,0-1.333Z" transform="translate(-183.333 -146.667)" fill="#283760"/>
    <path id="Path_1005961" data-name="Path 1005961" d="M234.667,208h-10a.667.667,0,0,0,0,1.333h10a.667.667,0,0,0,0-1.333Z" transform="translate(-183.333 -176)" fill="#283760"/>
    <path id="Path_1005962" data-name="Path 1005962" d="M65.333,344H56.667a.667.667,0,0,0,0,1.333h8.667a.667.667,0,1,0,0-1.333Z" transform="translate(-29.333 -300.667)" fill="#283760"/>
    <path id="Path_1005963" data-name="Path 1005963" d="M65.333,376H56.667a.667.667,0,1,0,0,1.333h8.667a.667.667,0,1,0,0-1.333Z" transform="translate(-29.333 -330)" fill="#283760"/>
    <path id="Path_1005964" data-name="Path 1005964" d="M65.333,408H56.667a.667.667,0,0,0,0,1.333h8.667a.667.667,0,1,0,0-1.333Z" transform="translate(-29.333 -359.333)" fill="#283760"/>
    <path id="Path_1005965" data-name="Path 1005965" d="M65.333,440H56.667a.667.667,0,0,0,0,1.333h8.667a.667.667,0,1,0,0-1.333Z" transform="translate(-29.333 -388.667)" fill="#283760"/>
    <path id="Path_1005966" data-name="Path 1005966" d="M234.667,240h-10a.667.667,0,0,0,0,1.333h10a.667.667,0,1,0,0-1.333Z" transform="translate(-183.333 -205.333)" fill="#283760"/>
    <path id="Path_1005967" data-name="Path 1005967" d="M80.667,272h-24a.667.667,0,1,0,0,1.333h24a.667.667,0,1,0,0-1.333Z" transform="translate(-29.333 -234.667)" fill="#283760"/>
    <path id="Path_1005968" data-name="Path 1005968" d="M80.667,304h-24a.667.667,0,1,0,0,1.333h24a.667.667,0,1,0,0-1.333Z" transform="translate(-29.333 -264)" fill="#283760"/>
    <path id="Path_1005969" data-name="Path 1005969" d="M205.333,336H192.667a.667.667,0,0,0-.667.667V346a.667.667,0,0,0,.667.667h12.667A.667.667,0,0,0,206,346v-9.333A.667.667,0,0,0,205.333,336Zm-.667,1.333v1.013l-2.8,2.24-1.656-.552a.667.667,0,0,0-.627.112l-3.15,2.521h-1.1a.667.667,0,0,0-.471.2l-1.529,1.529v-7.057Zm-10.391,8L195.609,344h1.057a.667.667,0,0,0,.417-.146l3.05-2.44,1.656.552a.667.667,0,0,0,.627-.112l2.25-1.8v5.279Z" transform="translate(-154 -293.333)" fill="#283760"/>
    <path id="Path_1005970" data-name="Path 1005970" d="M60,20H54.667V16.667A.667.667,0,0,0,54,16H24.667a.667.667,0,0,0-.667.667V54a2,2,0,0,0,2,2H56a2.67,2.67,0,0,0,2.667-2.667V52H62a.667.667,0,0,0,.667-.667V22.667A2.67,2.67,0,0,0,60,20ZM25.333,54V17.333h28v36a2.649,2.649,0,0,0,.359,1.333H26A.667.667,0,0,1,25.333,54Zm32-.667a1.333,1.333,0,0,1-2.667,0v-32h3.025a2.649,2.649,0,0,0-.359,1.333Zm4-2.667H58.667v-28a1.333,1.333,0,1,1,2.667,0Z" fill="#283760"/>
    <path id="Path_1005971" data-name="Path 1005971" d="M77.333,128a5.333,5.333,0,1,0,5.333,5.333A5.333,5.333,0,0,0,77.333,128Zm4,5.324L78,132.769V129.39A4.006,4.006,0,0,1,81.333,133.324Zm-6.661-2.974a3.988,3.988,0,0,1,1.994-.961v2.556Zm2.661,6.983a4,4,0,0,1-3.5-5.942l3.078,2.463h0a.664.664,0,0,0,.307.137l3.89.648A4.006,4.006,0,0,1,77.333,137.333Z" transform="translate(-44 -102.667)" fill="#283760"/>
  </g>
</svg>
