<svg xmlns="http://www.w3.org/2000/svg" width="40" height="38.551" viewBox="0 0 40 38.551">
  <path id="img56" d="M42.827,31.12a3.33,3.33,0,0,0,3.326-3.326V24.286a.645.645,0,0,0-.645-.645H40.792v-5.11a3.33,3.33,0,0,0-3.326-3.326H12.08a3.25,3.25,0,0,0-3.247,3.247V48.979A2.047,2.047,0,0,1,6.8,51.016h0a.645.645,0,0,0,0,1.29h3.644a.642.642,0,0,0,.307-.078l1.794-.97.92.871a.645.645,0,0,0,.756.1l1.956-1.083,1.956,1.083a.644.644,0,0,0,.554.034l2.347-.946,1.488.9a.645.645,0,0,0,.628.022l1.8-.922,1.981.932a.649.649,0,0,0,.275.061h4.008a9.814,9.814,0,1,0,5.128-18.18c-.306,0-.608.016-.907.044V31.12h7.4Zm2.036-6.189v2.863a2.038,2.038,0,0,1-2.036,2.036h-.072l-.016,0a2.038,2.038,0,0,1-1.948-2.033V24.931h4.071Zm-5.361-6.4V27.8a3.322,3.322,0,0,0,.7,2.034H35.431v-11.3A2.031,2.031,0,0,1,37.285,16.5c.015,0,.029-.006.044-.009h.137A2.038,2.038,0,0,1,39.5,18.531Zm5.361,25.41a8.525,8.525,0,1,1-8.525-8.525A8.534,8.534,0,0,1,44.863,43.94Zm-18.34,0a9.784,9.784,0,0,0,3.023,7.076h-2.2l-2.138-1.005a.643.643,0,0,0-.569.01l-1.759.9-1.456-.88A.641.641,0,0,0,20.849,50l-2.361.952-2-1.108a.645.645,0,0,0-.625,0l-1.855,1.028L13.091,50a.646.646,0,0,0-.75-.1l-2.062,1.115H9.421a3.318,3.318,0,0,0,.7-2.035V18.452A1.959,1.959,0,0,1,12.08,16.5H34.834a3.331,3.331,0,0,0-.694,2.035V34.376a9.83,9.83,0,0,0-7.618,9.564Zm3.949-20.454a.645.645,0,0,1-.645.645H14.438a.645.645,0,1,1,0-1.29H29.827A.645.645,0,0,1,30.472,23.486Zm0,4.108a.645.645,0,0,1-.645.645H14.438a.645.645,0,1,1,0-1.29H29.827A.645.645,0,0,1,30.472,27.594Zm0,4.108a.645.645,0,0,1-.645.645H14.438a.645.645,0,1,1,0-1.29H29.827A.645.645,0,0,1,30.472,31.7Zm-1.68,4.107a.645.645,0,0,1-.645.645H14.438a.645.645,0,1,1,0-1.29H28.146A.645.645,0,0,1,28.791,35.81Zm-2.835,4.108a.645.645,0,0,1-.645.645H14.438a.645.645,0,1,1,0-1.29H25.311A.645.645,0,0,1,25.956,39.917ZM25.2,44.025a.645.645,0,0,1-.645.646H14.438a.645.645,0,1,1,0-1.29H24.555A.645.645,0,0,1,25.2,44.025Zm6.325-.084a.645.645,0,0,1,.645-.645h3.523V37.386a.645.645,0,0,1,1.29,0V43.94a.645.645,0,0,1-.645.645H32.17A.645.645,0,0,1,31.525,43.94Z" transform="translate(-6.153 -15.205)" fill="#283760"/>
</svg>
