<svg xmlns="http://www.w3.org/2000/svg" width="38.71" height="40" viewBox="0 0 38.71 40">
  <g id="img54" transform="translate(-16 -8)">
    <path id="Path_1005942" data-name="Path 1005942" d="M250.323,8a6.414,6.414,0,0,0-3.676,1.154,16.027,16.027,0,0,0-6-1.154.645.645,0,0,0-.645.645V24.129a.645.645,0,0,0,.645.645h15.484a.645.645,0,0,0,.645-.645,16.026,16.026,0,0,0-1.154-6A6.447,6.447,0,0,0,250.323,8Zm5.161,6.452a5.161,5.161,0,1,1-5.161-5.161A5.161,5.161,0,0,1,255.484,14.451ZM241.29,23.484V9.3a14.716,14.716,0,0,1,4.256.815,6.448,6.448,0,0,0,9.109,9.109,14.716,14.716,0,0,1,.815,4.256Z" transform="translate(-205.936)" fill="#283760"/>
    <path id="Path_1005943" data-name="Path 1005943" d="M345.935,45.806h-1.29a.645.645,0,1,0,0,1.29h.645a.645.645,0,0,0,1.29,0v-.111a1.935,1.935,0,0,0-.645-3.76.645.645,0,1,1,0-1.29h1.29a.645.645,0,1,0,0-1.29h-.645a.645.645,0,0,0-1.29,0v.111a1.935,1.935,0,0,0,.645,3.76.645.645,0,1,1,0,1.29Z" transform="translate(-301.549 -29.42)" fill="#283760"/>
    <path id="Path_1005944" data-name="Path 1005944" d="M23.1,440H16.645a.645.645,0,0,0-.645.645v2.581a.645.645,0,0,0,.645.645H23.1a.645.645,0,0,0,.645-.645v-2.581A.645.645,0,0,0,23.1,440Zm-.645,2.581H17.29v-1.29h5.161Z" transform="translate(0 -397.162)" fill="#283760"/>
    <path id="Path_1005945" data-name="Path 1005945" d="M16.645,11.871H23.1a.645.645,0,0,0,.645-.645V8.645A.645.645,0,0,0,23.1,8H16.645A.645.645,0,0,0,16,8.645v2.581A.645.645,0,0,0,16.645,11.871ZM17.29,9.29h5.161v1.29H17.29Z" transform="translate(0 0)" fill="#283760"/>
    <path id="Path_1005946" data-name="Path 1005946" d="M279.1,456h-6.452a.645.645,0,0,0-.645.645v2.581a.645.645,0,0,0,.645.645H279.1a.645.645,0,0,0,.645-.645v-2.581A.645.645,0,0,0,279.1,456Zm-.645,2.581H273.29v-1.29h5.161Z" transform="translate(-235.355 -411.871)" fill="#283760"/>
    <path id="Path_1005947" data-name="Path 1005947" d="M407.1,360h-6.452a.645.645,0,0,0-.645.645v2.581a.645.645,0,0,0,.645.645H407.1a.645.645,0,0,0,.645-.645v-2.581A.645.645,0,0,0,407.1,360Zm-.645,2.581H401.29v-1.29h5.161Z" transform="translate(-353.033 -323.613)" fill="#283760"/>
    <path id="Path_1005948" data-name="Path 1005948" d="M38.665,71.933a.645.645,0,0,0,1.12-.64l-.427-.748a16.237,16.237,0,0,0,7.293-7.4l2.609,1.3a.645.645,0,1,0,.577-1.154l-2.669-1.335a16.046,16.046,0,0,0,1.09-5.83.645.645,0,0,0-.645-.645H32.774V40.645A.645.645,0,0,0,32.129,40a16.047,16.047,0,0,0-9.83,3.351l-.718-.615a.645.645,0,0,0-.84.98l.554.475a16.1,16.1,0,0,0-.317,23.581l-1.623,2.164a.645.645,0,0,0,1.032.774l1.561-2.081a16.1,16.1,0,0,0,16.23,2.451Zm7.342-10.554-2.623-1.311a.645.645,0,1,0-.577,1.154L45.5,62.566a14.905,14.905,0,0,1-2.743,3.91l-9.131-9.7H46.954a14.743,14.743,0,0,1-.946,4.605ZM22.283,45.037l2.974,2.549a.645.645,0,0,0,.84-.98l-2.8-2.4A14.757,14.757,0,0,1,31.484,41.3V54.99l-11.73-7.038a14.955,14.955,0,0,1,2.53-2.914Zm3.781,17.027a.645.645,0,0,0-.9.129l-3.4,4.537a14.812,14.812,0,0,1-2.67-17.674l12.4,7.438V70.953A14.768,14.768,0,0,1,22.722,67.6l3.471-4.629A.645.645,0,0,0,26.064,62.064Zm6.71,8.888v-13.2l9.04,9.605a14.892,14.892,0,0,1-3.1,2.062l-1.512-2.647a.645.645,0,0,0-1.12.64l1.447,2.532a14.739,14.739,0,0,1-4.758,1Z" transform="translate(0 -29.42)" fill="#283760"/>
  </g>
</svg>
