<svg xmlns="http://www.w3.org/2000/svg" width="40" height="40" viewBox="0 0 40 40">
  <g id="img55" transform="translate(-16 -16)">
    <path id="Path_1005949" data-name="Path 1005949" d="M55.333,20A.667.667,0,0,0,56,19.333V16.667A.667.667,0,0,0,55.333,16H16.667a.667.667,0,0,0-.667.667v2.667a.667.667,0,0,0,.667.667h.667V40.667h-.667a.667.667,0,0,0-.667.667V44a.667.667,0,0,0,.667.667H34.391l-10.2,10.2a.667.667,0,0,0,.943.943L36,44.943,46.862,55.8a.667.667,0,0,0,.943-.943l-10.2-10.2H55.333A.667.667,0,0,0,56,44V41.333a.667.667,0,0,0-.667-.667h-.667V20Zm-38-2.667H54.667v1.333H17.333Zm37.333,26H17.333V42H54.667Zm-1.333-2.667H18.667V20H53.333Z" fill="#283760"/>
    <path id="Path_1005950" data-name="Path 1005950" d="M69.333,90.667A5.333,5.333,0,1,0,64,85.333,5.333,5.333,0,0,0,69.333,90.667ZM70,81.39a3.988,3.988,0,0,1,1.995.961L70,83.946Zm-1.333,0v3.943a.667.667,0,0,0,1.083.521l3.079-2.463a4,4,0,1,1-4.162-2Z" transform="translate(-44 -58.667)" fill="#283760"/>
    <path id="Path_1005951" data-name="Path 1005951" d="M208.667,89.333h18.667a.667.667,0,0,0,0-1.333H208.667a.667.667,0,1,0,0,1.333Z" transform="translate(-176 -66)" fill="#283760"/>
    <path id="Path_1005952" data-name="Path 1005952" d="M208.667,121.333h18.667a.667.667,0,0,0,0-1.333H208.667a.667.667,0,1,0,0,1.333Z" transform="translate(-176 -95.333)" fill="#283760"/>
    <path id="Path_1005953" data-name="Path 1005953" d="M208.667,153.333h18.667a.667.667,0,0,0,0-1.333H208.667a.667.667,0,1,0,0,1.333Z" transform="translate(-176 -124.667)" fill="#283760"/>
    <path id="Path_1005954" data-name="Path 1005954" d="M208.667,185.333h18.667a.667.667,0,0,0,0-1.333H208.667a.667.667,0,0,0,0,1.333Z" transform="translate(-176 -154)" fill="#283760"/>
    <path id="Path_1005955" data-name="Path 1005955" d="M80.667,232h-8a.667.667,0,0,0-.667.667v2.667a.667.667,0,0,0,.667.667h8a.667.667,0,0,0,.667-.667v-2.667A.667.667,0,0,0,80.667,232ZM80,234.667H73.333v-1.333H80Z" transform="translate(-51.333 -198)" fill="#283760"/>
    <path id="Path_1005956" data-name="Path 1005956" d="M200.667,236h8a.667.667,0,0,0,.667-.667v-2.667a.667.667,0,0,0-.667-.667h-8a.667.667,0,0,0-.667.667v2.667A.667.667,0,0,0,200.667,236Zm.667-2.667H208v1.333h-6.667Z" transform="translate(-168.667 -198)" fill="#283760"/>
    <path id="Path_1005957" data-name="Path 1005957" d="M336.667,232h-8a.667.667,0,0,0-.667.667v2.667a.667.667,0,0,0,.667.667h8a.667.667,0,0,0,.667-.667v-2.667A.667.667,0,0,0,336.667,232ZM336,234.667h-6.667v-1.333H336Z" transform="translate(-286 -198)" fill="#283760"/>
  </g>
</svg>
