<svg xmlns="http://www.w3.org/2000/svg" width="1020" height="560" viewBox="0 0 1020 560">
  <g id="img35" transform="translate(-290.35 -9863)">
    <path id="Rectangle_455661" data-name="Rectangle 455661" d="M20,0h980a20,20,0,0,1,20,20V560a0,0,0,0,1,0,0H0a0,0,0,0,1,0,0V20A20,20,0,0,1,20,0Z" transform="translate(290.35 9863)" fill="#e9eaef"/>
    <g id="Group_1181568" data-name="Group 1181568">
      <g id="Group_1181521" data-name="Group 1181521">
        <rect id="Rectangle_456604" data-name="Rectangle 456604" width="270" height="90" rx="10" transform="translate(665.35 9975)" fill="#283760"/>
        <g id="Rectangle_456611" data-name="Rectangle 456611" transform="translate(651.35 9964)" fill="none" stroke="#283760" stroke-width="1" stroke-dasharray="2">
          <rect width="298" height="112" rx="10" stroke="none"/>
          <rect x="0.5" y="0.5" width="297" height="111" rx="9.5" fill="none"/>
        </g>
        <g id="Group_1181520" data-name="Group 1181520" transform="translate(319 -28)">
          <circle id="Ellipse_13862" data-name="Ellipse 13862" cx="40" cy="40" r="40" transform="translate(441.35 9943)" fill="#fcae57"/>
          <g id="Group_1181520-2" data-name="Group 1181520" transform="translate(461.35 9963)">
            <path id="Path_1005671" data-name="Path 1005671" d="M39.028,206.667a6.612,6.612,0,0,0-.505-1.189L40,204l-2.667-2.667-1.478,1.478a6.612,6.612,0,0,0-1.189-.505V200h-4v2.306a6.612,6.612,0,0,0-1.189.505L28,201.333,25.333,204l1.478,1.478a6.612,6.612,0,0,0-.5,1.189H24v4h2.306a6.612,6.612,0,0,0,.505,1.189l-1.478,1.477L28,216l1.478-1.477a6.613,6.613,0,0,0,1.189.505v2.306h4v-2.306a6.613,6.613,0,0,0,1.189-.505L37.333,216,40,213.333l-1.478-1.477a6.612,6.612,0,0,0,.505-1.189h2.306v-4Z" transform="translate(-23.333 -184.667)" fill="#3397e8"/>
            <circle id="Ellipse_13863" data-name="Ellipse 13863" cx="4.643" cy="4.643" r="4.643" transform="translate(5 19.286)" fill="#e9eef2"/>
            <ellipse id="Ellipse_13864" data-name="Ellipse 13864" cx="2.143" cy="1.786" rx="2.143" ry="1.786" transform="translate(7.143 22.143)" fill="#2978b8"/>
            <path id="Path_1005672" data-name="Path 1005672" d="M162.667,62.667A2.667,2.667,0,0,0,165.333,60V24H136V62.667Z" transform="translate(-126 -23.333)" fill="#e9eef2"/>
            <path id="Path_1005673" data-name="Path 1005673" d="M41.04,36.7a5.334,5.334,0,0,0-1.374-2.368L30.04,24.707A2.414,2.414,0,0,0,28.334,24h0a2.414,2.414,0,0,0-1.707.707l-1.919,1.919a2.414,2.414,0,0,0,0,3.414l9.625,9.625A5.333,5.333,0,0,0,36.7,41.04l5.967,1.627Z" transform="translate(-23.333 -23.333)" fill="#fbe9d8"/>
            <path id="Path_1005674" data-name="Path 1005674" d="M26.626,24.707l-1.919,1.919A2.414,2.414,0,0,0,24,28.333h0a2.414,2.414,0,0,0,.707,1.707L26.667,32,32,26.667l-1.96-1.96A2.414,2.414,0,0,0,28.333,24h0a2.414,2.414,0,0,0-1.707.707Z" transform="translate(-23.333 -23.333)" fill="#eb423f"/>
            <path id="Path_1005675" data-name="Path 1005675" d="M104,408h26.667v4a2.667,2.667,0,0,0,2.667,2.667H106.667A2.667,2.667,0,0,1,104,412Z" transform="translate(-96.667 -375.333)" fill="#dadcde"/>
            <rect id="Rectangle_456605" data-name="Rectangle 456605" width="5.714" height="11.429" transform="translate(29.286 5)" fill="#dadcde"/>
            <path id="Path_1005676" data-name="Path 1005676" d="M197.72,200.767l4.19,1.143-1.143-4.19Z" transform="translate(-182.577 -182.577)" fill="#414649"/>
            <path id="Path_1005677" data-name="Path 1005677" d="M56,61.333,63.665,69l0,0L69,63.667l0,0L61.333,56Z" transform="translate(-52.667 -52.667)" fill="#3397e8"/>
            <rect id="Rectangle_456606" data-name="Rectangle 456606" width="2.828" height="11.314" transform="translate(4.667 6.667) rotate(-45)" fill="#2978b8"/>
            <circle id="Ellipse_13865" data-name="Ellipse 13865" cx="1.071" cy="1.071" r="1.071" transform="translate(23.571 23.572)" fill="#3397e8"/>
            <rect id="Rectangle_456607" data-name="Rectangle 456607" width="6.429" height="5" transform="translate(14.286 22.143)" fill="#eb423f"/>
            <rect id="Rectangle_456608" data-name="Rectangle 456608" width="6.429" height="5" transform="translate(28.571 22.143)" fill="#3dc285"/>
            <rect id="Rectangle_456609" data-name="Rectangle 456609" width="6.429" height="2.857" transform="translate(21.429 30)" fill="#ffd33a"/>
            <rect id="Rectangle_456610" data-name="Rectangle 456610" width="7.543" height="1.886" transform="translate(2 7.333) rotate(-45)" fill="#ffd33a"/>
            <path id="Path_1005678" data-name="Path 1005678" d="M55.333,16H26a.667.667,0,0,0-.667.667v2.391L23.179,16.9a3.081,3.081,0,0,0-4.357,0L16.9,18.821a3.081,3.081,0,0,0,0,4.357l7.488,7.488H23.333a.667.667,0,0,0-.667.667v1.834q-.2.077-.391.166L21.138,32.2a.667.667,0,0,0-.943,0l-2.667,2.667a.667.667,0,0,0,0,.943l1.138,1.138q-.089.193-.166.391H16.667A.667.667,0,0,0,16,38v4a.667.667,0,0,0,.667.667H18.5q.077.2.166.391L17.529,44.2a.667.667,0,0,0,0,.943L20.2,47.8a.667.667,0,0,0,.943,0l1.138-1.138q.193.088.391.166v5.834A3.337,3.337,0,0,0,26,56H52.667A3.337,3.337,0,0,0,56,52.667v-36A.667.667,0,0,0,55.333,16ZM31.391,27l-.724.724L23.943,21l.724-.724Zm2.993,7.383-1.957-.533,1.423-1.423Zm-3.438-.938-1.4-.383a4.675,4.675,0,0,1-1.565-.764L32.3,27.977a4.675,4.675,0,0,1,.764,1.564l.383,1.4Zm-12-10.112,4.391-4.391.391.391-4.391,4.391ZM23,21.943l6.724,6.724-1.057,1.057L21.943,23Zm-5.155-2.179,1.919-1.919a1.748,1.748,0,0,1,2.471,0l.155.155L18,22.39l-.155-.155A1.748,1.748,0,0,1,17.845,19.764ZM21,23.943l6.724,6.724L27,31.39l-6.724-6.724Zm4.333,17.391a1.333,1.333,0,0,1,0-2.667Zm0-4a2.667,2.667,0,1,0,0,5.333V44a4,4,0,1,1,0-8Zm-2.87,7.937a.667.667,0,0,0-.791.114L20.667,46.39l-1.724-1.724,1.006-1.006a.667.667,0,0,0,.114-.791,5.949,5.949,0,0,1-.454-1.069.667.667,0,0,0-.636-.467H17.333V38.667h1.639a.667.667,0,0,0,.636-.467,5.949,5.949,0,0,1,.454-1.069.667.667,0,0,0-.114-.791l-1.006-1.006,1.724-1.724,1.006,1.006a.667.667,0,0,0,.791.114,5.954,5.954,0,0,1,1.069-.454A.667.667,0,0,0,24,33.639V32h1.333v2.667a5.333,5.333,0,1,0,0,10.667V48H24V46.361a.667.667,0,0,0-.467-.636,5.954,5.954,0,0,1-1.069-.454ZM26,54.667a2,2,0,0,1-2-2V49.333H49.333v3.333a3.316,3.316,0,0,0,.668,2Zm14-14a.667.667,0,1,1,.667.667A.667.667,0,0,1,40,40.667Zm3.333,6V48H38V46.667Zm11.333,6a2,2,0,1,1-4,0v-4A.667.667,0,0,0,50,48H44.667V46A.667.667,0,0,0,44,45.333H41.333V42.552a2.01,2.01,0,0,0,1.219-1.219H44v2a.667.667,0,0,0,.667.667h6.667A.667.667,0,0,0,52,43.333V38a.667.667,0,0,0-.667-.667H44.667A.667.667,0,0,0,44,38v2H42.552a2,2,0,0,0-3.771,0H37.333V38a.667.667,0,0,0-.667-.667H30a.667.667,0,0,0-.667.667v5.333A.667.667,0,0,0,30,44h6.667a.667.667,0,0,0,.667-.667v-2h1.448A2.01,2.01,0,0,0,40,42.552v2.781H37.333a.667.667,0,0,0-.667.667v2h-10V32.938a6.011,6.011,0,0,0,2.524,1.411l5.967,1.627a.664.664,0,0,0,.176.023H46a.667.667,0,0,0,.667-.667v-2h4.667A.667.667,0,0,0,52,32.667v-12A.667.667,0,0,0,51.333,20H46a.667.667,0,0,0-.667.667v14H35.843L35.115,32H42a.667.667,0,0,0,0-1.333H34.752l-.364-1.333H42A.667.667,0,0,0,42,28H33.882a6.009,6.009,0,0,0-.944-1.333h2.4a.667.667,0,0,0,0-1.333H32.667a.667.667,0,0,0-.624.433L26.667,20.39V17.333h28Zm-9.333-10v-4h5.333v4Zm-9.333-4v4H30.667v-4ZM46.667,32V21.333h4V32Z" transform="translate(-16 -16)"/>
            <path id="Path_1005679" data-name="Path 1005679" d="M224.667,65.333h2.667a.667.667,0,1,0,0-1.333h-2.667a.667.667,0,1,0,0,1.333Z" transform="translate(-206.667 -60)"/>
            <path id="Path_1005680" data-name="Path 1005680" d="M208.667,97.333H218A.667.667,0,1,0,218,96h-9.333a.667.667,0,1,0,0,1.333Z" transform="translate(-192 -89.333)"/>
            <path id="Path_1005681" data-name="Path 1005681" d="M288.667,65.333h2.667a.667.667,0,0,0,0-1.333h-2.667a.667.667,0,1,0,0,1.333Z" transform="translate(-265.333 -60)"/>
            <path id="Path_1005682" data-name="Path 1005682" d="M276.667,128h-4a.667.667,0,1,0,0,1.333h4a.667.667,0,0,0,0-1.333Z" transform="translate(-250.667 -118.667)"/>
          </g>
        </g>
        <path id="Path_1006058" data-name="Path 1006058" d="M-61.455-4.824V0h-3.428V-14.219h5.674a6.608,6.608,0,0,1,2.886.6,4.526,4.526,0,0,1,1.943,1.709,4.667,4.667,0,0,1,.688,2.515,4.114,4.114,0,0,1-1.489,3.325,6.179,6.179,0,0,1-4.087,1.245Zm0-2.646h2.246a2.118,2.118,0,0,0,1.519-.5,1.85,1.85,0,0,0,.522-1.406,2.287,2.287,0,0,0-.537-1.592,1.9,1.9,0,0,0-1.465-.605h-2.285ZM-48.545,0h-3.3V-15h3.3Zm7.979,0a3.716,3.716,0,0,1-.312-.947A3.06,3.06,0,0,1-43.418.2a3.749,3.749,0,0,1-2.539-.9A2.875,2.875,0,0,1-47-2.979a2.955,2.955,0,0,1,1.27-2.6,6.468,6.468,0,0,1,3.691-.879h1.016v-.559q0-1.462-1.26-1.462a1.03,1.03,0,0,0-1.172,1.158h-3.291a2.95,2.95,0,0,1,1.3-2.487,5.479,5.479,0,0,1,3.325-.956,4.8,4.8,0,0,1,3.193.986,3.429,3.429,0,0,1,1.2,2.705v4.678a4.79,4.79,0,0,0,.449,2.227V0Zm-2.061-2.148a1.836,1.836,0,0,0,1.021-.264,1.653,1.653,0,0,0,.581-.6V-4.7h-.957Q-43.7-4.7-43.7-3.154a.942.942,0,0,0,.3.728A1.1,1.1,0,0,0-42.627-2.148Zm9.746-8.418.107,1.24a3.583,3.583,0,0,1,3.018-1.436,3.015,3.015,0,0,1,2.466.986,4.7,4.7,0,0,1,.845,2.969V0h-3.3V-6.67a1.783,1.783,0,0,0-.322-1.177,1.491,1.491,0,0,0-1.172-.376,1.569,1.569,0,0,0-1.436.762V0h-3.291V-10.566Zm12.822,5.205a6.455,6.455,0,0,1,1.084-3.955,3.568,3.568,0,0,1,3.027-1.445,3.035,3.035,0,0,1,2.383,1.113V-15h3.3V0h-2.959l-.166-1.133A3.116,3.116,0,0,1-15.967.2,3.562,3.562,0,0,1-18.955-1.25,6.659,6.659,0,0,1-20.059-5.361Zm3.291.205q0,2.813,1.641,2.813a1.62,1.62,0,0,0,1.563-.918V-7.285a1.576,1.576,0,0,0-1.543-.937q-1.523,0-1.65,2.461ZM-3.281.2a5.432,5.432,0,0,1-3.936-1.45,5.008,5.008,0,0,1-1.5-3.774V-5.3a6.489,6.489,0,0,1,.6-2.861,4.395,4.395,0,0,1,1.753-1.919,5.292,5.292,0,0,1,2.734-.679A4.574,4.574,0,0,1-.117-9.38,5.43,5.43,0,0,1,1.172-5.527v1.279H-5.371a2.372,2.372,0,0,0,.771,1.4,2.3,2.3,0,0,0,1.543.508A2.958,2.958,0,0,0-.615-3.437L.889-1.66A4.2,4.2,0,0,1-.854-.308,5.891,5.891,0,0,1-3.281.2Zm-.371-8.418q-1.445,0-1.719,1.914h3.32v-.254a1.63,1.63,0,0,0-.4-1.226A1.593,1.593,0,0,0-3.652-8.223ZM13.428,0a3.716,3.716,0,0,1-.312-.947A3.06,3.06,0,0,1,10.576.2a3.749,3.749,0,0,1-2.539-.9A2.875,2.875,0,0,1,6.992-2.979a2.955,2.955,0,0,1,1.27-2.6,6.468,6.468,0,0,1,3.691-.879h1.016v-.559q0-1.462-1.26-1.462a1.03,1.03,0,0,0-1.172,1.158H7.246a2.95,2.95,0,0,1,1.3-2.487,5.479,5.479,0,0,1,3.325-.956,4.8,4.8,0,0,1,3.193.986,3.429,3.429,0,0,1,1.2,2.705v4.678a4.79,4.79,0,0,0,.449,2.227V0ZM11.367-2.148a1.836,1.836,0,0,0,1.021-.264,1.653,1.653,0,0,0,.581-.6V-4.7h-.957q-1.719,0-1.719,1.543a.942.942,0,0,0,.3.728A1.1,1.1,0,0,0,11.367-2.148Zm11.191-.2a1.464,1.464,0,0,0,1.074-.376A1.379,1.379,0,0,0,24-3.77H27.09A3.653,3.653,0,0,1,25.845-.918,4.631,4.631,0,0,1,22.637.2,4.689,4.689,0,0,1,19-1.25a5.7,5.7,0,0,1-1.328-4v-.137a6.436,6.436,0,0,1,.591-2.827,4.3,4.3,0,0,1,1.7-1.885,5.081,5.081,0,0,1,2.637-.659,4.573,4.573,0,0,1,3.271,1.143,4.053,4.053,0,0,1,1.211,3.1H24a1.807,1.807,0,0,0-.4-1.26,1.382,1.382,0,0,0-1.074-.439q-1.279,0-1.494,1.631a11.508,11.508,0,0,0-.068,1.426,4.52,4.52,0,0,0,.381,2.207A1.319,1.319,0,0,0,22.559-2.344Zm10.391,0a1.464,1.464,0,0,0,1.074-.376,1.379,1.379,0,0,0,.371-1.05H37.48A3.653,3.653,0,0,1,36.235-.918,4.631,4.631,0,0,1,33.027.2,4.689,4.689,0,0,1,29.395-1.25a5.7,5.7,0,0,1-1.328-4v-.137a6.436,6.436,0,0,1,.591-2.827,4.3,4.3,0,0,1,1.7-1.885A5.081,5.081,0,0,1,33-10.762,4.573,4.573,0,0,1,36.27-9.619a4.053,4.053,0,0,1,1.211,3.1H34.395a1.807,1.807,0,0,0-.4-1.26,1.382,1.382,0,0,0-1.074-.439q-1.279,0-1.494,1.631a11.508,11.508,0,0,0-.068,1.426,4.52,4.52,0,0,0,.381,2.207A1.319,1.319,0,0,0,32.949-2.344ZM42.344,0h-3.3V-10.566h3.3Zm-3.5-13.291a1.469,1.469,0,0,1,.508-1.152,1.916,1.916,0,0,1,1.318-.449,1.916,1.916,0,0,1,1.318.449,1.469,1.469,0,0,1,.508,1.152,1.469,1.469,0,0,1-.508,1.152,1.916,1.916,0,0,1-1.318.449,1.916,1.916,0,0,1-1.318-.449A1.469,1.469,0,0,1,38.848-13.291Zm5.107,7.91A6.236,6.236,0,0,1,44.57-8.2a4.4,4.4,0,0,1,1.768-1.9,5.323,5.323,0,0,1,2.705-.664,4.858,4.858,0,0,1,3.74,1.47,5.64,5.64,0,0,1,1.367,4v.117a5.472,5.472,0,0,1-1.372,3.921A4.871,4.871,0,0,1,49.063.2a4.927,4.927,0,0,1-3.623-1.353,5.29,5.29,0,0,1-1.475-3.667Zm3.291.205a3.932,3.932,0,0,0,.459,2.148,1.529,1.529,0,0,0,1.357.684q1.758,0,1.8-2.705v-.332q0-2.842-1.816-2.842-1.65,0-1.787,2.451ZM49.492-15h3.477l-2.715,3.066-2.686,0Zm9.131,4.434.107,1.24a3.583,3.583,0,0,1,3.018-1.436,3.015,3.015,0,0,1,2.466.986,4.7,4.7,0,0,1,.845,2.969V0h-3.3V-6.67a1.783,1.783,0,0,0-.322-1.177,1.491,1.491,0,0,0-1.172-.376,1.569,1.569,0,0,0-1.436.762V0H55.537V-10.566Z" transform="translate(800.35 10029)" fill="#fff"/>
      </g>
      <g id="Group_1181522" data-name="Group 1181522" transform="translate(-173 211)">
        <rect id="Rectangle_456604-2" data-name="Rectangle 456604" width="270" height="160" rx="10" transform="translate(665.35 9978)" fill="#91b9d1"/>
        <g id="Rectangle_456611-2" data-name="Rectangle 456611" transform="translate(651.35 9964)" fill="none" stroke="#91b9d1" stroke-width="1" stroke-dasharray="2">
          <rect width="298" height="187" rx="10" stroke="none"/>
          <rect x="0.5" y="0.5" width="297" height="186" rx="9.5" fill="none"/>
        </g>
        <g id="Group_1181520-3" data-name="Group 1181520" transform="translate(319 -28)">
          <circle id="Ellipse_13862-2" data-name="Ellipse 13862" cx="40" cy="40" r="40" transform="translate(441.35 9943)" fill="#fcae57"/>
          <g id="Group_1181559" data-name="Group 1181559" transform="translate(459.47 9961.12)">
            <g id="Group_1181557" data-name="Group 1181557" transform="translate(1.674 1.674)">
              <g id="Group_1181524" data-name="Group 1181524" transform="translate(29.333 25.595)">
                <path id="Path_1005683" data-name="Path 1005683" d="M47.874,40l.505,1.515v.007a6.645,6.645,0,0,0-2.829,1.414L46.527,40Z" transform="translate(-45.55 -40)" fill="#e6e9ed"/>
              </g>
              <g id="Group_1181525" data-name="Group 1181525" transform="translate(29.218 22.901)">
                <path id="Path_1005684" data-name="Path 1005684" d="M48.909,37.057l-1.091,1.637H46.471L45.38,37.057,47.145,36Z" transform="translate(-45.38 -36)" fill="#ccd1d9"/>
              </g>
              <g id="Group_1181526" data-name="Group 1181526" transform="translate(31.657 21.466)">
                <path id="Path_1005685" data-name="Path 1005685" d="M57.015,38.046a19.462,19.462,0,0,1-1.226,3.273h-.007a6.714,6.714,0,0,0-4.762-1.973,6.618,6.618,0,0,0-1.515.175v-.007L49,38l1.091-1.637,1.6.963,1.152-3.455a8.454,8.454,0,0,1,4.169,4.176Z" transform="translate(-49 -33.87)" fill="#ff826e"/>
              </g>
              <g id="Group_1181527" data-name="Group 1181527" transform="translate(22.355 23.958)">
                <path id="Path_1005686" data-name="Path 1005686" d="M40.531,38.614a2.083,2.083,0,0,0,.222-.263l1.3-.781,1.091,1.637-.977,2.937a6.732,6.732,0,0,0-2.391,5.146v.04a8.243,8.243,0,0,0-2.216-1.468l-1.825-.593L35.19,43.08a4.037,4.037,0,0,0,2.876-3.536l.027-.337H39.1A2.016,2.016,0,0,0,40.531,38.614Z" transform="translate(-35.19 -37.57)" fill="#ff826e"/>
              </g>
              <g id="Group_1181528" data-name="Group 1181528" transform="translate(30.983 20.88)">
                <path id="Path_1005687" data-name="Path 1005687" d="M48,35.021,50.694,33a8.257,8.257,0,0,1,1.825.586l-1.152,3.455-1.6-.963Z" transform="translate(-48 -33)" fill="#fc6e51"/>
              </g>
              <g id="Group_1181529" data-name="Group 1181529" transform="translate(27.777 20.88)">
                <path id="Path_1005688" data-name="Path 1005688" d="M43.247,34.354l.29-1.165a1.173,1.173,0,0,0,.034-.148h.007c.054-.013.115-.027.175-.04l2.694,2.021-1.765,1.057-1.3.781a2.929,2.929,0,0,0,.37-1.165,1.97,1.97,0,0,0-.512-1.334Z" transform="translate(-43.24 -33)" fill="#fc6e51"/>
              </g>
              <g id="Group_1181530" data-name="Group 1181530" transform="translate(0.7 22.335)">
                <path id="Path_1005689" data-name="Path 1005689" d="M13.089,37.073a5.8,5.8,0,0,0,.525-1.623l.047-.29a1.116,1.116,0,0,0,.249.094,5.082,5.082,0,0,1,.768.242,1.94,1.94,0,0,0-.216.9,2.024,2.024,0,0,0,2.021,2.021h1.01l.027.337A4.037,4.037,0,0,0,20.4,42.293l-.546,2.189a8.627,8.627,0,0,0-1.825.586,8.4,8.4,0,0,0-4.735,5.92A19.324,19.324,0,0,1,10.422,49.2V42.461H7.728v2.694H6.381A19.945,19.945,0,0,1,3.04,38.3a6.072,6.072,0,0,1,3.893-3.044,1.116,1.116,0,0,0,.249-.094l.047.29a6.061,6.061,0,0,0,1.078,2.539,5.958,5.958,0,0,0,2.115,1.778A5.936,5.936,0,0,0,13.089,37.073Z" transform="translate(-3.04 -35.16)" fill="#4fc1e9"/>
              </g>
              <g id="Group_1181531" data-name="Group 1181531" transform="translate(18.219 36.371)">
                <path id="Path_1005690" data-name="Path 1005690" d="M31.711,56l1.313,3.947c-.653.061-1.313.094-1.987.094a19.332,19.332,0,0,1-1.987-.1L30.363,56Z" transform="translate(-29.05 -56)" fill="#ff826e"/>
              </g>
              <g id="Group_1181532" data-name="Group 1181532" transform="translate(18.442 33.677)">
                <path id="Path_1005691" data-name="Path 1005691" d="M29.38,53.057,31.145,52l1.765,1.057-1.091,1.637H30.471Z" transform="translate(-29.38 -52)" fill="#fc6e51"/>
              </g>
              <g id="Group_1181533" data-name="Group 1181533" transform="translate(20.88 32.249)">
                <path id="Path_1005692" data-name="Path 1005692" d="M41.035,56.07v.007a20.146,20.146,0,0,1-6.722,1.872L33,54l1.091-1.637,1.6.963,1.152-3.449a8.243,8.243,0,0,1,2.216,1.468A6.716,6.716,0,0,0,41.035,56.07Z" transform="translate(-33 -49.88)" fill="#b4dd7f"/>
              </g>
              <g id="Group_1181534" data-name="Group 1181534" transform="translate(10.952 32.243)">
                <path id="Path_1005693" data-name="Path 1005693" d="M25.75,52.362,26.841,54l-1.313,3.94A19.95,19.95,0,0,1,18.26,55.8V55.79A8.4,8.4,0,0,1,23,49.87l1.152,3.455Z" transform="translate(-18.26 -49.87)" fill="#b4dd7f"/>
              </g>
              <g id="Group_1181535" data-name="Group 1181535" transform="translate(20.206 31.657)">
                <path id="Path_1005694" data-name="Path 1005694" d="M34.694,49l1.825.593-1.152,3.449-1.6-.963L32,51.021Z" transform="translate(-32 -49)" fill="#a0d468"/>
              </g>
              <g id="Group_1181536" data-name="Group 1181536" transform="translate(15.687 31.657)">
                <path id="Path_1005695" data-name="Path 1005695" d="M27.115,49l2.694,2.021-1.765,1.057-1.6.963L25.29,49.586A8.627,8.627,0,0,1,27.115,49Z" transform="translate(-25.29 -49)" fill="#a0d468"/>
              </g>
              <g id="Group_1181537" data-name="Group 1181537" transform="translate(5.415 24.248)">
                <path id="Path_1005696" data-name="Path 1005696" d="M10.04,38h5.334a5.936,5.936,0,0,1-2.667,2.694A5.865,5.865,0,0,1,10.04,38Z" transform="translate(-10.04 -38)" fill="#e6e9ed"/>
              </g>
              <g id="Group_1181538" data-name="Group 1181538" transform="translate(12.124 12.124)">
                <path id="Path_1005697" data-name="Path 1005697" d="M35.95,28.945l-.29,1.165-.007.007a1.973,1.973,0,0,0-1.509-.687h-.674v-.054a1.3,1.3,0,0,0-1.28-1.293H28.823a4.179,4.179,0,0,1-3.186-1.468l-1.832.909a2.019,2.019,0,0,0-1.111,1.805v.1h-.674a1.973,1.973,0,0,0-1.509.687l-.007-.007-.485-3.873v-.013A2.053,2.053,0,0,1,20,25.9a2.583,2.583,0,0,1,.485-1.509,2.417,2.417,0,0,1,.775-.7,2.166,2.166,0,0,1,.505-.236l.256-.088a4.172,4.172,0,0,1,1.448-2.418,4.092,4.092,0,0,1,.573-.391v-.007A4.237,4.237,0,0,1,26.129,20h2.842a7.021,7.021,0,0,1,1.852.242,7.227,7.227,0,0,1,5.341,6.951,7.733,7.733,0,0,1-.182,1.6,1.174,1.174,0,0,1-.034.148Z" transform="translate(-20 -20)" fill="#b27946"/>
              </g>
              <g id="Group_1181539" data-name="Group 1181539" transform="translate(8.817 5.523)">
                <path id="Path_1005698" data-name="Path 1005698" d="M19.744,17.851a1.341,1.341,0,0,0-1.017-1.307,6.254,6.254,0,0,1-2.9-1.637l-.4-.4a1.5,1.5,0,0,0-.337-.249l1.334-1.334L15.306,11.8c.081-.189.081-.2.162-.391H17.05V10.2a6.742,6.742,0,0,1,5.388,6.6v.559a4.092,4.092,0,0,0-.573.391,4.172,4.172,0,0,0-1.448,2.418l-.256.088a2.166,2.166,0,0,0-.505.236l-.007-.007a5.307,5.307,0,0,0,.094-.99Z" transform="translate(-15.09 -10.2)" fill="#656d78"/>
              </g>
              <g id="Group_1181540" data-name="Group 1181540" transform="translate(21.553 2.694)">
                <path id="Path_1005699" data-name="Path 1005699" d="M36.384,6h4.351a6.735,6.735,0,0,0-1.078,5.927l-.505.249a2.019,2.019,0,0,0-1.111,1.805v.1h-.674a2,2,0,0,0-1.65.855l-.512-.256a2.174,2.174,0,0,1,0-3.893l.141-.074-.647-.647A2.381,2.381,0,0,1,36.384,6Z" transform="translate(-34 -6)" fill="#656d78"/>
              </g>
              <g id="Group_1181541" data-name="Group 1181541" transform="translate(36.035 11.497)">
                <path id="Path_1005700" data-name="Path 1005700" d="M56.51,22.391H55.5l.155-1.832A6.761,6.761,0,0,0,57.9,19.07h.007c.229.471.431.95.613,1.441A2.013,2.013,0,0,1,56.51,22.391Z" transform="translate(-55.5 -19.07)" fill="#f0d0b4"/>
              </g>
              <g id="Group_1181542" data-name="Group 1181542" transform="translate(28.289 18.691)">
                <path id="Path_1005701" data-name="Path 1005701" d="M48.843,29.75l.546,2.189L46.694,33.96,44,31.939l.546-2.189a4.071,4.071,0,0,0,1.152.168h1.994A4.071,4.071,0,0,0,48.843,29.75Z" transform="translate(-44 -29.75)" fill="#f0d0b4"/>
              </g>
              <g id="Group_1181543" data-name="Group 1181543" transform="translate(25.595 8.621)">
                <path id="Path_1005702" data-name="Path 1005702" d="M42.64,24.64a7.13,7.13,0,0,0-2.378-4.533l-.256-3.051a.51.51,0,0,1-.007-.1v-.1a2.019,2.019,0,0,1,1.111-1.805l.505-.249a6.738,6.738,0,0,0,8.978,4.365L50.44,21l-.027.337a4.045,4.045,0,0,1-4.028,3.7H44.392a4.071,4.071,0,0,1-1.152-.168,4.245,4.245,0,0,1-.6-.229Z" transform="translate(-40 -14.8)" fill="#f0d0b4"/>
              </g>
              <g id="Group_1181544" data-name="Group 1181544" transform="translate(22.948 10.777)">
                <path id="Path_1005703" data-name="Path 1005703" d="M38.724,18.1l.256,3.051a7.138,7.138,0,0,0-2.91-1.563A2.021,2.021,0,0,1,38.043,18h.674A.51.51,0,0,0,38.724,18.1Z" transform="translate(-36.07 -18)" fill="#f0d0b4"/>
              </g>
              <g id="Group_1181545" data-name="Group 1181545" transform="translate(25.258 21.553)">
                <path id="Path_1005704" data-name="Path 1005704" d="M40.51,34a2.038,2.038,0,0,1,2.021,2.021,2.929,2.929,0,0,1-.37,1.165,2.082,2.082,0,0,1-.222.263,2.016,2.016,0,0,1-1.428.593H39.5l.33-3.987A.131.131,0,0,0,39.837,34Z" transform="translate(-39.5 -34)" fill="#f0d0b4"/>
              </g>
              <g id="Group_1181546" data-name="Group 1181546" transform="translate(17.512 29.468)">
                <path id="Path_1005705" data-name="Path 1005705" d="M32.843,45.75l.546,2.189L30.694,49.96,28,47.939l.546-2.189a4.071,4.071,0,0,0,1.152.168h1.994A4.071,4.071,0,0,0,32.843,45.75Z" transform="translate(-28 -45.75)" fill="#f0d0b4"/>
              </g>
              <g id="Group_1181547" data-name="Group 1181547" transform="translate(14.818 18.738)">
                <path id="Path_1005706" data-name="Path 1005706" d="M34.777,32.582v.054a.19.19,0,0,1-.007.054l-.33,3.987-.027.337a4.045,4.045,0,0,1-4.028,3.7H28.392a4.045,4.045,0,0,1-4.028-3.7l-.027-.337-.33-3.94a.51.51,0,0,1-.007-.1v-.1a2.018,2.018,0,0,1,1.111-1.805l1.832-.909a4.179,4.179,0,0,0,3.186,1.468H33.5A1.3,1.3,0,0,1,34.777,32.582Z" transform="translate(-24 -29.82)" fill="#f0d0b4"/>
              </g>
              <g id="Group_1181548" data-name="Group 1181548" transform="translate(12.124 21.553)">
                <path id="Path_1005707" data-name="Path 1005707" d="M22.7,34.1l.33,3.94h-1.01A2.024,2.024,0,0,1,20,36.021a1.94,1.94,0,0,1,.216-.9,1.7,1.7,0,0,1,.3-.431A1.973,1.973,0,0,1,22.021,34h.674a.51.51,0,0,0,.007.1Z" transform="translate(-20 -34)" fill="#f0d0b4"/>
              </g>
              <g id="Group_1181549" data-name="Group 1181549" transform="translate(4.843 19.789)">
                <path id="Path_1005708" data-name="Path 1005708" d="M15.669,33.926l-.047.29a5.8,5.8,0,0,1-.525,1.623H9.763a6.03,6.03,0,0,1-.525-1.623l-.047-.29a1.364,1.364,0,0,0,.748-.9l.411-1.643a5.4,5.4,0,0,0,4.163,0l.411,1.643A1.364,1.364,0,0,0,15.669,33.926Z" transform="translate(-9.19 -31.38)" fill="#f0d0b4"/>
              </g>
              <g id="Group_1181550" data-name="Group 1181550" transform="translate(2.694 9.032)">
                <path id="Path_1005709" data-name="Path 1005709" d="M15.45,24.739a5.3,5.3,0,0,1-1.98,1.428A5.385,5.385,0,0,1,6,21.2v-4.7c.061-.108.128-.209.189-.317l.768-.768c.189.074.2.081.391.162v1.583h2.694V15.572c.189-.081.2-.081.391-.162l1.118,1.118.573-.573a1.5,1.5,0,0,1,.337.249l.4.4a6.254,6.254,0,0,0,2.9,1.637,1.341,1.341,0,0,1,1.017,1.307V21.2a5.307,5.307,0,0,1-.094.99l.007.007a2.417,2.417,0,0,0-.775.7A2.583,2.583,0,0,0,15.43,24.4a2.053,2.053,0,0,0,.02.323Z" transform="translate(-6 -15.41)" fill="#f0d0b4"/>
              </g>
              <g id="Group_1181551" data-name="Group 1181551" transform="translate(26.942)">
                <path id="Path_1005710" data-name="Path 1005710" d="M53.5,13.5a6.735,6.735,0,0,1-10.15-8.8,7.171,7.171,0,0,1,.626-.721A6.734,6.734,0,1,1,53.5,13.5Z" transform="translate(-42 -2)" fill="#69d6f4"/>
              </g>
              <g id="Group_1181552" data-name="Group 1181552" transform="translate(26.942 26.942)">
                <path id="Path_1005711" data-name="Path 1005711" d="M53.5,43.973a6.734,6.734,0,1,1-11.5,4.8v-.04a6.732,6.732,0,0,1,2.391-5.146A6.771,6.771,0,0,1,48.735,42,6.714,6.714,0,0,1,53.5,43.973Z" transform="translate(-42 -42)" fill="#fcd770"/>
              </g>
              <g id="Group_1181553" data-name="Group 1181553" transform="translate(5.388 29.636)">
                <path id="Path_1005712" data-name="Path 1005712" d="M12.694,52.735v4.041H10V46h2.694Z" transform="translate(-10 -46)" fill="#ff826e"/>
              </g>
              <g id="Group_1181554" data-name="Group 1181554" transform="translate(2.694 32.33)">
                <path id="Path_1005713" data-name="Path 1005713" d="M8.694,50v8.083H6V50H8.694Z" transform="translate(-6 -50)" fill="#ff826e"/>
              </g>
              <g id="Group_1181555" data-name="Group 1181555" transform="translate(0 35.024)">
                <path id="Path_1005714" data-name="Path 1005714" d="M2,54H4.694v5.388H2Z" transform="translate(-2 -54)" fill="#ff826e"/>
              </g>
              <g id="Group_1181556" data-name="Group 1181556" transform="translate(0 0)">
                <path id="Path_1005715" data-name="Path 1005715" d="M10.817,11.578l-.573.573L9.126,11.032c-.189.081-.2.081-.391.162v1.583H6.041V11.194c-.189-.081-.2-.088-.391-.162l-.768.768-.35.35L2.626,10.244,3.744,9.126c-.074-.189-.081-.2-.162-.391H2V6.041H3.583c.081-.189.081-.2.162-.391L2.626,4.533,4.533,2.626,5.651,3.744c.189-.081.2-.081.391-.162V2H8.735V3.583c.189.081.2.081.391.162l1.118-1.118L12.15,4.533l-.35.35-.768.768c.081.189.081.2.162.391h1.583V8.735H11.194c-.081.189-.081.2-.162.391l1.118,1.118ZM8.735,7.388A1.347,1.347,0,1,0,7.388,8.735,1.351,1.351,0,0,0,8.735,7.388Z" transform="translate(-2 -2)" fill="#fcd770"/>
              </g>
            </g>
            <g id="Group_1181558" data-name="Group 1181558" transform="translate(1 1)">
              <path id="Path_1005716" data-name="Path 1005716" d="M51.694,46.471V45H50.347v1.347H49v2.021a2.023,2.023,0,0,0,2.021,2.021.674.674,0,0,1,.674.674v.674h-.674a.674.674,0,0,1-.674-.674v-.674H49v.674a2.018,2.018,0,0,0,1.347,1.9V54.43h1.347V53.083h1.347V51.062a2.023,2.023,0,0,0-2.021-2.021.674.674,0,0,1-.674-.674v-.674h.674a.674.674,0,0,1,.674.674v.674h1.347v-.674A2.018,2.018,0,0,0,51.694,46.471Z" transform="translate(-16.67 -15.364)"/>
              <path id="Path_1005717" data-name="Path 1005717" d="M9.021,11.041A2.021,2.021,0,1,0,7,9.021,2.023,2.023,0,0,0,9.021,11.041Zm0-2.694a.674.674,0,1,1-.674.674A.674.674,0,0,1,9.021,8.347Z" transform="translate(-2.959 -2.959)"/>
              <path id="Path_1005718" data-name="Path 1005718" d="M40.909,13.292A7.4,7.4,0,0,0,30.468,2.851a20.841,20.841,0,0,0-18.426.618L9.919,1.347l-.837.837V1H5.041V2.183L4.2,1.347,1.347,4.2l.837.837H1V9.083H2.183l-.837.837L3.47,12.042A20.826,20.826,0,0,0,4.43,33.33H3.694v2.694H1V42.76h9.43v-3.43a20.836,20.836,0,0,0,20.039,1.579A7.4,7.4,0,0,0,40.909,30.468a20.851,20.851,0,0,0,0-17.177Zm-5.558,14.65a7.4,7.4,0,0,0-1.058.084l-.22-.658.552-.828L36.4,27.6l1.164-3.493a7.718,7.718,0,0,1,3.061,3.282,19.506,19.506,0,0,1-.753,2.1A7.367,7.367,0,0,0,35.351,27.942ZM5.041,13.124H9.083V11.94l.837.837.616-.616.219.219A6.9,6.9,0,0,0,13.96,14.2a.672.672,0,0,1,.511.653v1.642a4.687,4.687,0,0,1-.044.606,3.247,3.247,0,0,0-1.3,2.6c0,.032,0,.056,0,.082a4.708,4.708,0,0,1-8.084-3.289Zm6.9-4.041h1.184v-1A6.08,6.08,0,0,1,17.165,13.8V14a4.884,4.884,0,0,0-1.347,1.408v-.562a2.019,2.019,0,0,0-1.53-1.961,5.556,5.556,0,0,1-2.581-1.461l-.219-.219,1.289-1.289ZM13.311,21.4l.263,2.1c-.056-.015-.109-.039-.165-.053a.693.693,0,0,1-.5-.5l-.28-1.118A5.966,5.966,0,0,0,13.311,21.4Zm-1.328,3.851H7.529a5.245,5.245,0,0,1-.271-.94,2.017,2.017,0,0,0,.655-1.039l.235-.938a5.864,5.864,0,0,0,3.215,0l.235.94a2.027,2.027,0,0,0,.656,1.04A5.254,5.254,0,0,1,11.983,25.248ZM11.2,26.595a5.247,5.247,0,0,1-1.44,1.255,5.247,5.247,0,0,1-1.44-1.255ZM15.818,23.9h.054l.225,2.694h-.279a1.347,1.347,0,1,1,0-2.694Zm.067-1.347h-.067a2.668,2.668,0,0,0-.981.191l-.352-2.808a1.594,1.594,0,0,1-.014-.238,1.9,1.9,0,0,1,1.3-1.809l.628-.209.076-.383a3.525,3.525,0,0,1,3.447-2.826h2.84a6.524,6.524,0,0,1,6.328,8.106l-.054.216a2.666,2.666,0,0,0-1.1-.24h-.11a1.962,1.962,0,0,0-1.845-1.346h0A3.525,3.525,0,0,1,22.54,18.38l-1.321.264a4.842,4.842,0,0,0,1.416,2.562h-.016a3.525,3.525,0,0,1-3.447-2.826l-1.321.264a4.831,4.831,0,0,0,.579,1.513l-1.128.564a2.665,2.665,0,0,0-1.417,1.832ZM24.4,7.957a1.708,1.708,0,0,1,1.208-2.916h3.152A7.35,7.35,0,0,0,28.1,9.934l-.022.011a2.664,2.664,0,0,0-1.418,1.832h-.067a2.691,2.691,0,0,0-1.8.7l-.063-.031a1.506,1.506,0,0,1,0-2.694l.978-.489Zm10.95-5.069.639.959a8.219,8.219,0,0,1,.657,1.194H34.055a8.22,8.22,0,0,1,.657-1.194Zm1.765,3.5a8.1,8.1,0,0,1,0,4.041H33.586a8.1,8.1,0,0,1,0-4.041Zm4.3,2.021a6.019,6.019,0,0,1-.354,2.021H38.5a9.522,9.522,0,0,0,0-4.041h2.557A6.019,6.019,0,0,1,41.413,8.409Zm-1.371,6.28a1.346,1.346,0,0,1-1.323,1.129H38.44l.059-.712a7.383,7.383,0,0,0,1.37-.839Q39.958,14.478,40.041,14.689ZM32.97,26.595h-.626l-.5-.748.812-.487.812.487ZM27.888,23.9h.054a1.347,1.347,0,0,1,0,2.694h-.279Zm2.3-.139.042-.168,1.223.917-.839.5a2.675,2.675,0,0,0-.426-1.253Zm3.676.75,1.633-1.225a7.706,7.706,0,0,1,.839.251l-.683,2.048Zm.727-2.228-1.932,1.449-1.932-1.449.282-1.127a4.69,4.69,0,0,0,.655.051h1.993a4.565,4.565,0,0,0,.654-.052Zm-.936-2.424H31.66a3.329,3.329,0,0,1-1.146-.2,7.852,7.852,0,0,0-2.332-4.36l-.233-2.8c0-.048-.006-.1-.006-.148a1.322,1.322,0,0,1,.573-1.083,7.423,7.423,0,0,0,6.162,4.52v.034a1.348,1.348,0,0,1-1.347,1.347H30.636v1.347H33.33a2.7,2.7,0,0,0,2.694-2.694v-.034a7.353,7.353,0,0,0,1.082-.185l-.1,1.172a3.388,3.388,0,0,1-3.356,3.089Zm-7-6.735.091,1.088a7.856,7.856,0,0,0-1.2-.573,1.348,1.348,0,0,1,1.053-.515Zm8.7.806-.639-.959a8.32,8.32,0,0,1-.657-1.194h2.592a8.219,8.219,0,0,1-.657,1.194Zm-1.76-.211.395.591a6.076,6.076,0,0,1-3.671-2.533H32.6a9.54,9.54,0,0,0,.993,1.942Zm3.126.591.395-.591a9.577,9.577,0,0,0,.994-1.942h2.283A6.08,6.08,0,0,1,36.717,14.31ZM32.2,10.43H29.642a5.95,5.95,0,0,1,0-4.041H32.2a9.521,9.521,0,0,0,0,4.041Zm-14.295,11.5,1.388-.694a4.861,4.861,0,0,0,3.327,1.321h3.355a.631.631,0,0,1,.618.672l-.36,4.323a3.388,3.388,0,0,1-3.356,3.088H20.883a3.387,3.387,0,0,1-3.356-3.088l-.356-4.275c0-.05-.006-.1-.006-.149a1.331,1.331,0,0,1,.74-1.2Zm5.18,13.362,1.631-1.223a7.835,7.835,0,0,1,.843.244l-.684,2.052Zm-2.2-3.305h1.993a4.557,4.557,0,0,0,.654-.052l.282,1.128L21.88,34.509l-1.932-1.449.282-1.128a4.574,4.574,0,0,0,.655.052Zm-1.85,2.075,1.64,1.23-1.789,1.074L18.2,34.3a7.688,7.688,0,0,1,.835-.245Zm-2.062.82,1.167,3.5,1.773-1.064.552.828-1.034,3.1a19.244,19.244,0,0,1-6.021-1.774,7.676,7.676,0,0,1,3.562-4.594Zm4.595,2.493-.5-.748.812-.487.812.487-.5.748Zm2.281-.055,1.773,1.064,1.163-3.488a7.7,7.7,0,0,1,1.177.834,7.363,7.363,0,0,0,1.532,4.143,19.254,19.254,0,0,1-5.159,1.387L23.3,38.145Zm4.208-3.222a9.039,9.039,0,0,0-2.929-1.33l-.3-1.214a4.741,4.741,0,0,0,2.713-3.609h.405a2.678,2.678,0,0,0,2.078-1l.669-.4.552.828-.824,2.472a7.4,7.4,0,0,0-2.359,4.255Zm4.412-6.153h.377l.132.4a7.4,7.4,0,0,0-.741.3Zm8.6-2.419A9.074,9.074,0,0,0,35.9,21.988l-.3-1.214a4.741,4.741,0,0,0,2.713-3.609h.4a2.683,2.683,0,0,0,1.9-.8,19.463,19.463,0,0,1,.791,5.516,19.712,19.712,0,0,1-.344,3.643ZM40.388,5.041H38.1A9.577,9.577,0,0,0,37.111,3.1l-.395-.591A6.076,6.076,0,0,1,40.388,5.041Zm-6.4-2.533L33.59,3.1A9.609,9.609,0,0,0,32.6,5.041H30.314a6.076,6.076,0,0,1,3.671-2.533ZM29.008,3.694h-3.4a3.056,3.056,0,0,0-2.16,5.216l.061.061a2.852,2.852,0,0,0-.08,4.187c-.219-.018-.439-.034-.663-.034h-2.84a4.812,4.812,0,0,0-1.433.227,7.427,7.427,0,0,0-5.368-6.68V5.041H11.986A19.523,19.523,0,0,1,29.008,3.694ZM3.706,7.735H2.347V6.388H3.706l.507-1.222L3.252,4.2,4.2,3.251l.961.962,1.222-.507V2.347H7.735V3.706l1.222.507.961-.961.953.953-.962.961.507,1.222h1.359V7.735H10.417L9.91,8.958l.962.961-.953.952L8.958,9.91l-1.222.507v1.359H6.388V10.416L5.167,9.91l-.962.961-.953-.952.961-.96Zm-.012,7.037v1.72a6.067,6.067,0,0,0,3.191,5.337l-.279,1.113a.693.693,0,0,1-.5.505,6.729,6.729,0,0,0-3.4,2.076,19.322,19.322,0,0,1,1-10.75Zm-1.347,22.6H3.694v4.041H2.347Zm2.694,4.041V34.677H6.388v6.735Zm4.041,0H7.735v-9.43H9.083ZM6.388,30.636V33.33H6.066A19.354,19.354,0,0,1,3.1,27.241a5.391,5.391,0,0,1,2.907-2.36,6.6,6.6,0,0,0,3.444,4.336l.3.151.3-.151a6.609,6.609,0,0,0,3.137-3.376,2.7,2.7,0,0,0,2.623,2.1h.4a4.743,4.743,0,0,0,2.714,3.609l-.3,1.214A9.025,9.025,0,0,0,12.2,38.832a19.691,19.691,0,0,1-1.767-1.138V30.636ZM20.808,41.37l.884-2.652h.377l.888,2.665q-.535.029-1.076.03c-.36,0-.716-.024-1.072-.042Zm14.543.042a6.062,6.062,0,1,1,6.062-6.062A6.068,6.068,0,0,1,35.351,41.413Z" transform="translate(-1 -1)"/>
              <path id="Path_1005719" data-name="Path 1005719" d="M34.388,39H33.041a1.348,1.348,0,0,1-1.347,1.347H29v1.347h2.694A2.7,2.7,0,0,0,34.388,39Z" transform="translate(-10.141 -13.405)"/>
              <path id="Path_1005720" data-name="Path 1005720" d="M16.388,25H15.041a1.348,1.348,0,0,1-1.347,1.347H11v1.347h2.694A2.7,2.7,0,0,0,16.388,25Z" transform="translate(-4.265 -8.835)"/>
            </g>
          </g>
        </g>
        <path id="Path_1006059" data-name="Path 1006059" d="M-46.683-4.526h-1.67V0h-3.085V-12.8H-46.4a5.621,5.621,0,0,1,3.56,1.01,3.421,3.421,0,0,1,1.283,2.853A4.155,4.155,0,0,1-42.1-6.721,3.837,3.837,0,0,1-43.792-5.3L-41.12-.132V0h-3.3ZM-48.353-6.9H-46.4a1.751,1.751,0,0,0,1.323-.463,1.788,1.788,0,0,0,.444-1.291,1.809,1.809,0,0,0-.448-1.3,1.735,1.735,0,0,0-1.318-.471h-1.951ZM-35.231.176a4.889,4.889,0,0,1-3.542-1.305,4.507,4.507,0,0,1-1.354-3.4v-.246a5.84,5.84,0,0,1,.541-2.575,3.955,3.955,0,0,1,1.578-1.727,4.763,4.763,0,0,1,2.461-.611,4.117,4.117,0,0,1,3.164,1.244,4.887,4.887,0,0,1,1.16,3.467v1.151h-5.889a2.135,2.135,0,0,0,.694,1.257,2.066,2.066,0,0,0,1.389.457,2.662,2.662,0,0,0,2.2-.984l1.354,1.6A3.784,3.784,0,0,1-33.047-.277,5.3,5.3,0,0,1-35.231.176ZM-35.565-7.4q-1.3,0-1.547,1.723h2.988v-.229a1.467,1.467,0,0,0-.36-1.1A1.434,1.434,0,0,0-35.565-7.4Zm10.512,4.729a.684.684,0,0,0-.4-.606,6.016,6.016,0,0,0-1.5-.475A6.853,6.853,0,0,1-28.78-4.4a3.062,3.062,0,0,1-1.1-.971,2.319,2.319,0,0,1-.378-1.31,2.628,2.628,0,0,1,1.081-2.158,4.453,4.453,0,0,1,2.83-.848,4.934,4.934,0,0,1,3.023.853,2.666,2.666,0,0,1,1.143,2.241H-25.15q0-1.143-1.2-1.143a1.194,1.194,0,0,0-.782.259.8.8,0,0,0-.316.646.737.737,0,0,0,.387.642,3.654,3.654,0,0,0,1.235.4,10.671,10.671,0,0,1,1.49.378A2.706,2.706,0,0,1-22.2-2.76,2.491,2.491,0,0,1-23.353-.642a5.068,5.068,0,0,1-2.993.817,5.172,5.172,0,0,1-2.18-.439,3.645,3.645,0,0,1-1.494-1.2,2.707,2.707,0,0,1-.536-1.591h2.769a1.145,1.145,0,0,0,.439.962,1.808,1.808,0,0,0,1.081.3,1.422,1.422,0,0,0,.91-.246A.787.787,0,0,0-25.053-2.672Zm13.069-2.013a5.735,5.735,0,0,1-1,3.538A3.2,3.2,0,0,1-15.675.176a2.742,2.742,0,0,1-2.153-.958V3.656h-2.962V-9.51h2.769l.088.879a2.742,2.742,0,0,1,2.241-1.055,3.224,3.224,0,0,1,2.733,1.3,5.805,5.805,0,0,1,.976,3.564Zm-2.962-.185q0-2.531-1.477-2.531a1.394,1.394,0,0,0-1.406.756V-2.9a1.439,1.439,0,0,0,1.424.791q1.415,0,1.459-2.443Zm3.894.026A5.613,5.613,0,0,1-10.5-7.378,3.96,3.96,0,0,1-8.908-9.088a4.791,4.791,0,0,1,2.435-.6A4.373,4.373,0,0,1-3.107-8.363a5.076,5.076,0,0,1,1.23,3.6v.105A4.925,4.925,0,0,1-3.111-1.129,4.384,4.384,0,0,1-6.456.176,4.434,4.434,0,0,1-9.716-1.042a4.761,4.761,0,0,1-1.327-3.3Zm2.962.185a3.538,3.538,0,0,0,.413,1.934,1.376,1.376,0,0,0,1.222.615q1.582,0,1.617-2.435v-.3q0-2.558-1.635-2.558-1.485,0-1.608,2.206ZM2.149-9.51l.1,1.116A3.225,3.225,0,0,1,4.961-9.686,2.713,2.713,0,0,1,7.181-8.8a4.226,4.226,0,0,1,.76,2.672V0H4.97V-6a1.6,1.6,0,0,0-.29-1.059A1.342,1.342,0,0,0,3.625-7.4a1.413,1.413,0,0,0-1.292.686V0H-.628V-9.51Zm12.41,6.838a.684.684,0,0,0-.4-.606,6.016,6.016,0,0,0-1.5-.475A6.853,6.853,0,0,1,10.833-4.4a3.062,3.062,0,0,1-1.1-.971,2.319,2.319,0,0,1-.378-1.31,2.628,2.628,0,0,1,1.081-2.158,4.453,4.453,0,0,1,2.83-.848,4.934,4.934,0,0,1,3.023.853,2.666,2.666,0,0,1,1.143,2.241H14.462q0-1.143-1.2-1.143a1.194,1.194,0,0,0-.782.259.8.8,0,0,0-.316.646.737.737,0,0,0,.387.642,3.654,3.654,0,0,0,1.235.4,10.671,10.671,0,0,1,1.49.378A2.706,2.706,0,0,1,17.416-2.76,2.491,2.491,0,0,1,16.26-.642a5.068,5.068,0,0,1-2.993.817,5.172,5.172,0,0,1-2.18-.439,3.645,3.645,0,0,1-1.494-1.2A2.707,2.707,0,0,1,9.057-3.05h2.769a1.145,1.145,0,0,0,.439.962,1.808,1.808,0,0,0,1.081.3,1.422,1.422,0,0,0,.91-.246A.787.787,0,0,0,14.559-2.672ZM24.157,0a3.344,3.344,0,0,1-.281-.853A2.754,2.754,0,0,1,21.59.176a3.374,3.374,0,0,1-2.285-.813,2.588,2.588,0,0,1-.94-2.043,2.66,2.66,0,0,1,1.143-2.338A5.821,5.821,0,0,1,22.83-5.81h.914v-.5q0-1.316-1.134-1.316a.927.927,0,0,0-1.055,1.042H18.593a2.655,2.655,0,0,1,1.173-2.239,4.931,4.931,0,0,1,2.993-.86,4.323,4.323,0,0,1,2.874.888,3.086,3.086,0,0,1,1.081,2.435v4.21a4.311,4.311,0,0,0,.4,2V0ZM22.3-1.934a1.652,1.652,0,0,0,.918-.237,1.487,1.487,0,0,0,.523-.536V-4.228h-.861q-1.547,0-1.547,1.389a.848.848,0,0,0,.272.655A.986.986,0,0,0,22.3-1.934Zm14.88-2.742a5.8,5.8,0,0,1-.967,3.595A3.238,3.238,0,0,1,33.491.176,2.81,2.81,0,0,1,31.153-.976L31.03,0H28.375V-13.5h2.962v4.755a2.711,2.711,0,0,1,2.136-.94,3.239,3.239,0,0,1,2.742,1.274,5.826,5.826,0,0,1,.967,3.586Zm-2.971-.189a3.866,3.866,0,0,0-.365-1.952A1.229,1.229,0,0,0,32.726-7.4a1.418,1.418,0,0,0-1.389.763v3.773a1.426,1.426,0,0,0,1.406.755,1.258,1.258,0,0,0,1.327-1.018A7.309,7.309,0,0,0,34.211-4.865ZM41.612,0H38.641V-13.5h2.971Zm6.425.176a4.889,4.889,0,0,1-3.542-1.305,4.507,4.507,0,0,1-1.354-3.4v-.246a5.84,5.84,0,0,1,.541-2.575,3.955,3.955,0,0,1,1.578-1.727,4.763,4.763,0,0,1,2.461-.611,4.117,4.117,0,0,1,3.164,1.244,4.887,4.887,0,0,1,1.16,3.467v1.151H46.156a2.135,2.135,0,0,0,.694,1.257,2.066,2.066,0,0,0,1.389.457,2.662,2.662,0,0,0,2.2-.984l1.354,1.6A3.784,3.784,0,0,1,50.221-.277,5.3,5.3,0,0,1,48.037.176ZM47.7-7.4q-1.3,0-1.547,1.723h2.988v-.229a1.467,1.467,0,0,0-.36-1.1A1.434,1.434,0,0,0,47.7-7.4ZM-32.484,20.474h-1.67V25h-3.085V12.2H-32.2a5.621,5.621,0,0,1,3.56,1.01,3.421,3.421,0,0,1,1.283,2.853,4.155,4.155,0,0,1-.541,2.213A3.837,3.837,0,0,1-29.593,19.7l2.672,5.167V25h-3.3Zm-1.67-2.373H-32.2a1.751,1.751,0,0,0,1.323-.463,1.788,1.788,0,0,0,.444-1.291,1.809,1.809,0,0,0-.448-1.3,1.735,1.735,0,0,0-1.318-.471h-1.951Zm13.122,7.075a4.889,4.889,0,0,1-3.542-1.305,4.507,4.507,0,0,1-1.354-3.4v-.246a5.84,5.84,0,0,1,.541-2.575,3.955,3.955,0,0,1,1.578-1.727,4.763,4.763,0,0,1,2.461-.611,4.117,4.117,0,0,1,3.164,1.244,4.887,4.887,0,0,1,1.16,3.467v1.151h-5.889a2.135,2.135,0,0,0,.694,1.257,2.066,2.066,0,0,0,1.389.457,2.662,2.662,0,0,0,2.2-.984l1.354,1.6a3.784,3.784,0,0,1-1.569,1.217A5.3,5.3,0,0,1-21.032,25.176Zm-.334-7.576q-1.3,0-1.547,1.723h2.988v-.229a1.467,1.467,0,0,0-.36-1.1A1.434,1.434,0,0,0-21.366,17.6Zm9.554,5.291a1.317,1.317,0,0,0,.967-.338,1.241,1.241,0,0,0,.334-.945h2.777a3.288,3.288,0,0,1-1.121,2.566,4.168,4.168,0,0,1-2.887,1,4.22,4.22,0,0,1-3.27-1.3,5.125,5.125,0,0,1-1.2-3.6v-.123a5.792,5.792,0,0,1,.532-2.544,3.872,3.872,0,0,1,1.534-1.7,4.573,4.573,0,0,1,2.373-.593,4.116,4.116,0,0,1,2.944,1.028,3.647,3.647,0,0,1,1.09,2.786h-2.777A1.626,1.626,0,0,0-10.872,18a1.244,1.244,0,0,0-.967-.4q-1.151,0-1.345,1.468a10.357,10.357,0,0,0-.062,1.283,4.068,4.068,0,0,0,.343,1.986A1.187,1.187,0,0,0-11.812,22.891Zm11,1.081a3.054,3.054,0,0,1-2.54,1.2,3,3,0,0,1-2.369-.91,3.826,3.826,0,0,1-.8-2.615V15.49h2.962v6.179a1.065,1.065,0,0,0,1.187,1.222,1.548,1.548,0,0,0,1.45-.729V15.49H2.048V25H-.729Zm10.239-5.8-.976-.07a1.752,1.752,0,0,0-1.793.879V25H3.691V15.49H6.469l.1,1.222a2.294,2.294,0,0,1,2.083-1.4,2.888,2.888,0,0,1,.826.105Zm6.047,4.157a.684.684,0,0,0-.4-.606,6.016,6.016,0,0,0-1.5-.475,6.853,6.853,0,0,1-1.828-.646,3.062,3.062,0,0,1-1.1-.971,2.319,2.319,0,0,1-.378-1.31,2.628,2.628,0,0,1,1.081-2.158,4.453,4.453,0,0,1,2.83-.848,4.934,4.934,0,0,1,3.023.853,2.666,2.666,0,0,1,1.143,2.241H15.372q0-1.143-1.2-1.143a1.194,1.194,0,0,0-.782.259.8.8,0,0,0-.316.646.737.737,0,0,0,.387.642,3.654,3.654,0,0,0,1.235.4,10.671,10.671,0,0,1,1.49.378,2.706,2.706,0,0,1,2.145,2.646,2.491,2.491,0,0,1-1.156,2.118,5.068,5.068,0,0,1-2.993.817A5.172,5.172,0,0,1,12,24.736a3.645,3.645,0,0,1-1.494-1.2,2.707,2.707,0,0,1-.536-1.591h2.769a1.145,1.145,0,0,0,.439.962,1.808,1.808,0,0,0,1.081.3,1.422,1.422,0,0,0,.91-.246A.787.787,0,0,0,15.469,22.328Zm3.867-2.171a5.613,5.613,0,0,1,.554-2.536,3.96,3.96,0,0,1,1.591-1.709,4.791,4.791,0,0,1,2.435-.6,4.373,4.373,0,0,1,3.366,1.323,5.076,5.076,0,0,1,1.23,3.6v.105a4.925,4.925,0,0,1-1.235,3.529,4.384,4.384,0,0,1-3.344,1.305,4.434,4.434,0,0,1-3.261-1.217,4.761,4.761,0,0,1-1.327-3.3Zm2.962.185a3.538,3.538,0,0,0,.413,1.934,1.376,1.376,0,0,0,1.222.615q1.582,0,1.617-2.435v-.3q0-2.558-1.635-2.558-1.485,0-1.608,2.206Zm12.5,1.986a.684.684,0,0,0-.4-.606,6.016,6.016,0,0,0-1.5-.475,6.853,6.853,0,0,1-1.828-.646,3.062,3.062,0,0,1-1.1-.971,2.319,2.319,0,0,1-.378-1.31,2.628,2.628,0,0,1,1.081-2.158,4.453,4.453,0,0,1,2.83-.848,4.934,4.934,0,0,1,3.023.853,2.666,2.666,0,0,1,1.143,2.241H34.7q0-1.143-1.2-1.143a1.194,1.194,0,0,0-.782.259.8.8,0,0,0-.316.646.737.737,0,0,0,.387.642,3.654,3.654,0,0,0,1.235.4,10.671,10.671,0,0,1,1.49.378,2.706,2.706,0,0,1,2.145,2.646A2.491,2.491,0,0,1,36.5,24.358a5.068,5.068,0,0,1-2.993.817,5.172,5.172,0,0,1-2.18-.439,3.645,3.645,0,0,1-1.494-1.2,2.707,2.707,0,0,1-.536-1.591h2.769a1.145,1.145,0,0,0,.439.962,1.808,1.808,0,0,0,1.081.3,1.422,1.422,0,0,0,.91-.246A.787.787,0,0,0,34.8,22.328ZM-75.327,45.658V50h-3.085V37.2h5.106a5.948,5.948,0,0,1,2.6.541,4.074,4.074,0,0,1,1.749,1.538,4.2,4.2,0,0,1,.62,2.263,3.7,3.7,0,0,1-1.34,2.993,5.561,5.561,0,0,1-3.678,1.121Zm0-2.382h2.021a1.906,1.906,0,0,0,1.367-.448,1.665,1.665,0,0,0,.47-1.266,2.059,2.059,0,0,0-.483-1.433,1.712,1.712,0,0,0-1.318-.545h-2.057Zm14.247-.105-.976-.07a1.752,1.752,0,0,0-1.793.879V50H-66.81V40.49h2.777l.1,1.222a2.294,2.294,0,0,1,2.083-1.4,2.888,2.888,0,0,1,.826.105ZM-56.887,50h-2.971V40.49h2.971Zm-3.146-11.962A1.322,1.322,0,0,1-59.577,37a1.724,1.724,0,0,1,1.187-.4A1.724,1.724,0,0,1-57.2,37a1.322,1.322,0,0,1,.457,1.037,1.322,1.322,0,0,1-.457,1.037,1.724,1.724,0,0,1-1.187.4,1.724,1.724,0,0,1-1.187-.4A1.322,1.322,0,0,1-60.034,38.038Zm4.6,7.119a5.613,5.613,0,0,1,.554-2.536,3.96,3.96,0,0,1,1.591-1.709,4.791,4.791,0,0,1,2.435-.6,4.373,4.373,0,0,1,3.366,1.323,5.076,5.076,0,0,1,1.23,3.6v.105A4.925,4.925,0,0,1-47.5,48.871a4.384,4.384,0,0,1-3.344,1.305A4.434,4.434,0,0,1-54.1,48.958a4.761,4.761,0,0,1-1.327-3.3Zm2.962.185a3.538,3.538,0,0,0,.413,1.934,1.376,1.376,0,0,0,1.222.615q1.582,0,1.617-2.435v-.3q0-2.558-1.635-2.558-1.485,0-1.608,2.206ZM-39.2,43.171l-.976-.07a1.752,1.752,0,0,0-1.793.879V50h-2.962V40.49h2.777l.1,1.222a2.294,2.294,0,0,1,2.083-1.4,2.888,2.888,0,0,1,.826.105ZM-35.011,50h-2.971V40.49h2.971Zm-3.146-11.962A1.322,1.322,0,0,1-37.7,37a1.724,1.724,0,0,1,1.187-.4,1.724,1.724,0,0,1,1.187.4,1.322,1.322,0,0,1,.457,1.037,1.322,1.322,0,0,1-.457,1.037,1.724,1.724,0,0,1-1.187.4,1.724,1.724,0,0,1-1.187-.4A1.322,1.322,0,0,1-38.158,38.038Zm4.6,7.137a5.809,5.809,0,0,1,.976-3.56,3.211,3.211,0,0,1,2.725-1.3,2.731,2.731,0,0,1,2.145,1V36.5h2.971V50h-2.663l-.149-1.02a2.8,2.8,0,0,1-2.32,1.2,3.205,3.205,0,0,1-2.689-1.3A5.993,5.993,0,0,1-33.561,45.175Zm2.962.185q0,2.531,1.477,2.531a1.458,1.458,0,0,0,1.406-.826V43.443A1.419,1.419,0,0,0-29.1,42.6q-1.371,0-1.485,2.215ZM-17.706,50a3.344,3.344,0,0,1-.281-.853,2.754,2.754,0,0,1-2.285,1.028,3.374,3.374,0,0,1-2.285-.813,2.588,2.588,0,0,1-.94-2.043,2.66,2.66,0,0,1,1.143-2.338,5.821,5.821,0,0,1,3.322-.791h.914v-.5q0-1.316-1.134-1.316a.927.927,0,0,0-1.055,1.042h-2.962A2.655,2.655,0,0,1-22.1,41.175a4.931,4.931,0,0,1,2.993-.86,4.323,4.323,0,0,1,2.874.888,3.086,3.086,0,0,1,1.081,2.435v4.21a4.311,4.311,0,0,0,.4,2V50Zm-1.854-1.934a1.652,1.652,0,0,0,.918-.237,1.487,1.487,0,0,0,.523-.536V45.772h-.861q-1.547,0-1.547,1.389a.848.848,0,0,0,.272.655A.986.986,0,0,0-19.56,48.066Zm5.678-2.892a5.809,5.809,0,0,1,.976-3.56,3.211,3.211,0,0,1,2.725-1.3,2.731,2.731,0,0,1,2.145,1V36.5h2.971V50H-7.73l-.149-1.02a2.8,2.8,0,0,1-2.32,1.2,3.205,3.205,0,0,1-2.689-1.3A5.993,5.993,0,0,1-13.882,45.175Zm2.962.185q0,2.531,1.477,2.531a1.458,1.458,0,0,0,1.406-.826V43.443A1.419,1.419,0,0,0-9.426,42.6q-1.371,0-1.485,2.215Zm15.82.492L6.482,40.49H9.655l-3.876,11.1-.167.4a2.944,2.944,0,0,1-2.918,1.846,4.642,4.642,0,0,1-1.222-.175v-2.11h.387a2.026,2.026,0,0,0,.954-.18,1.094,1.094,0,0,0,.488-.647l.237-.633L.233,40.49H3.4Zm9.633-.694a5.613,5.613,0,0,1,.554-2.536,3.96,3.96,0,0,1,1.591-1.709,4.791,4.791,0,0,1,2.435-.6,4.373,4.373,0,0,1,3.366,1.323,5.076,5.076,0,0,1,1.23,3.6v.105a4.925,4.925,0,0,1-1.235,3.529,4.384,4.384,0,0,1-3.344,1.305,4.434,4.434,0,0,1-3.261-1.217,4.761,4.761,0,0,1-1.327-3.3Zm2.962.185a3.538,3.538,0,0,0,.413,1.934,1.376,1.376,0,0,0,1.222.615q1.582,0,1.617-2.435v-.3q0-2.558-1.635-2.558-1.485,0-1.608,2.206Zm16.348-.018a5.8,5.8,0,0,1-.967,3.595,3.238,3.238,0,0,1-2.725,1.257,2.81,2.81,0,0,1-2.338-1.151L27.69,50H25.036V36.5H28v4.755a2.711,2.711,0,0,1,2.136-.94,3.239,3.239,0,0,1,2.742,1.274,5.826,5.826,0,0,1,.967,3.586Zm-2.971-.189a3.866,3.866,0,0,0-.365-1.952,1.229,1.229,0,0,0-1.121-.584A1.418,1.418,0,0,0,28,43.363v3.773a1.426,1.426,0,0,0,1.406.755,1.258,1.258,0,0,0,1.327-1.018A7.309,7.309,0,0,0,30.872,45.135Zm7.462-4.645v9.835a3.452,3.452,0,0,1-.967,2.6,3.714,3.714,0,0,1-2.672.914,6.308,6.308,0,0,1-1.4-.149V51.45a5.667,5.667,0,0,0,.835.079,1.084,1.084,0,0,0,1.23-1.222V40.49Zm-3.19-2.452A1.322,1.322,0,0,1,35.6,37a1.943,1.943,0,0,1,2.373,0,1.405,1.405,0,0,1,0,2.074,1.943,1.943,0,0,1-2.373,0A1.322,1.322,0,0,1,35.143,38.038Zm9.466,12.138a4.889,4.889,0,0,1-3.542-1.305,4.507,4.507,0,0,1-1.354-3.4v-.246a5.84,5.84,0,0,1,.541-2.575,3.955,3.955,0,0,1,1.578-1.727,4.763,4.763,0,0,1,2.461-.611,4.117,4.117,0,0,1,3.164,1.244,4.887,4.887,0,0,1,1.16,3.467v1.151H42.728a2.135,2.135,0,0,0,.694,1.257,2.066,2.066,0,0,0,1.389.457,2.662,2.662,0,0,0,2.2-.984l1.354,1.6a3.784,3.784,0,0,1-1.569,1.217A5.3,5.3,0,0,1,44.609,50.176ZM44.275,42.6q-1.3,0-1.547,1.723h2.988v-.229a1.467,1.467,0,0,0-.36-1.1A1.434,1.434,0,0,0,44.275,42.6Zm8.982-4.474V40.49h1.564v2.057H53.257V46.9a1.111,1.111,0,0,0,.193.747,1.037,1.037,0,0,0,.765.211,4.345,4.345,0,0,0,.738-.053v2.118a5.466,5.466,0,0,1-1.67.255,3.1,3.1,0,0,1-2.259-.721,2.954,2.954,0,0,1-.729-2.188v-4.72H49.083V40.49H50.3V38.126ZM59.111,50H56.14V40.49h2.971ZM55.964,38.038A1.322,1.322,0,0,1,56.421,37a1.943,1.943,0,0,1,2.373,0,1.405,1.405,0,0,1,0,2.074,1.943,1.943,0,0,1-2.373,0A1.322,1.322,0,0,1,55.964,38.038Zm8.763,8.438,1.5-5.985h3.12L66.248,50H63.224l-3.1-9.51H63.25Zm5-1.318a5.613,5.613,0,0,1,.554-2.536,3.96,3.96,0,0,1,1.591-1.709,4.791,4.791,0,0,1,2.435-.6,4.373,4.373,0,0,1,3.366,1.323,5.076,5.076,0,0,1,1.23,3.6v.105a4.925,4.925,0,0,1-1.235,3.529,4.384,4.384,0,0,1-3.344,1.305,4.434,4.434,0,0,1-3.261-1.217,4.761,4.761,0,0,1-1.327-3.3Zm2.962.185a3.538,3.538,0,0,0,.413,1.934,1.376,1.376,0,0,0,1.222.615q1.582,0,1.617-2.435v-.3q0-2.558-1.635-2.558-1.485,0-1.608,2.206ZM-9.756,75h-3.067V69.656h-4.544V75h-3.085V62.2h3.085v5.08h4.544V62.2h3.067Zm4.939,0H-7.787V65.49h2.971ZM-7.963,63.038A1.322,1.322,0,0,1-7.506,62a1.724,1.724,0,0,1,1.187-.4,1.724,1.724,0,0,1,1.187.4,1.322,1.322,0,0,1,.457,1.037,1.322,1.322,0,0,1-.457,1.037,1.724,1.724,0,0,1-1.187.4,1.724,1.724,0,0,1-1.187-.4A1.322,1.322,0,0,1-7.963,63.038Zm8.42.088V65.49H2.021v2.057H.457V71.9a1.111,1.111,0,0,0,.193.747,1.037,1.037,0,0,0,.765.211,4.345,4.345,0,0,0,.738-.053v2.118a5.466,5.466,0,0,1-1.67.255,3.1,3.1,0,0,1-2.259-.721A2.954,2.954,0,0,1-2.5,72.267v-4.72H-3.718V65.49H-2.5V63.126Zm2.092,7.031A5.613,5.613,0,0,1,3.1,67.622a3.96,3.96,0,0,1,1.591-1.709,4.791,4.791,0,0,1,2.435-.6,4.373,4.373,0,0,1,3.366,1.323,5.076,5.076,0,0,1,1.23,3.6v.105a4.925,4.925,0,0,1-1.235,3.529,4.384,4.384,0,0,1-3.344,1.305,4.434,4.434,0,0,1-3.261-1.217,4.761,4.761,0,0,1-1.327-3.3Zm2.962.185a3.538,3.538,0,0,0,.413,1.934,1.376,1.376,0,0,0,1.222.615q1.582,0,1.617-2.435v-.3q0-2.558-1.635-2.558-1.485,0-1.608,2.206Zm12.5,1.986a.684.684,0,0,0-.4-.606,6.016,6.016,0,0,0-1.5-.475,6.853,6.853,0,0,1-1.828-.646,3.062,3.062,0,0,1-1.1-.971,2.319,2.319,0,0,1-.378-1.31,2.628,2.628,0,0,1,1.081-2.158,4.453,4.453,0,0,1,2.83-.848,4.934,4.934,0,0,1,3.023.853,2.666,2.666,0,0,1,1.143,2.241H17.912q0-1.143-1.2-1.143a1.194,1.194,0,0,0-.782.259.8.8,0,0,0-.316.646.737.737,0,0,0,.387.642,3.654,3.654,0,0,0,1.235.4,10.671,10.671,0,0,1,1.49.378,2.706,2.706,0,0,1,2.145,2.646,2.491,2.491,0,0,1-1.156,2.118,5.068,5.068,0,0,1-2.993.817,5.172,5.172,0,0,1-2.18-.439,3.645,3.645,0,0,1-1.494-1.2,2.707,2.707,0,0,1-.536-1.591h2.769a1.145,1.145,0,0,0,.439.962,1.808,1.808,0,0,0,1.081.3,1.422,1.422,0,0,0,.91-.246A.787.787,0,0,0,18.009,72.328Z" transform="translate(800.35 10029)" fill="#12263f"/>
      </g>
      <g id="Group_1181523" data-name="Group 1181523" transform="translate(173 211)">
        <rect id="Rectangle_456604-3" data-name="Rectangle 456604" width="270" height="160" rx="10" transform="translate(665.35 9978)" fill="#91b9d1"/>
        <g id="Rectangle_456611-3" data-name="Rectangle 456611" transform="translate(651.35 9964)" fill="none" stroke="#91b9d1" stroke-width="1" stroke-dasharray="2">
          <rect width="298" height="187" rx="10" stroke="none"/>
          <rect x="0.5" y="0.5" width="297" height="186" rx="9.5" fill="none"/>
        </g>
        <g id="Group_1181520-4" data-name="Group 1181520" transform="translate(319 -28)">
          <circle id="Ellipse_13862-3" data-name="Ellipse 13862" cx="40" cy="40" r="40" transform="translate(441.35 9943)" fill="#fcae57"/>
          <g id="Group_1181567" data-name="Group 1181567" transform="translate(455.199 9956.245)">
            <g id="Group_1181562" data-name="Group 1181562" transform="translate(13.486 2.737)">
              <g id="Group_1181561" data-name="Group 1181561" transform="translate(0 0)">
                <g id="Group_1181560" data-name="Group 1181560" transform="translate(4.452 6.007)">
                  <path id="Path_1005721" data-name="Path 1005721" d="M88.231,52.009h-.685a1.69,1.69,0,1,1,0-3.38h.594v2.357A5.467,5.467,0,0,0,88.231,52.009Z" transform="translate(-85.856 -46.085)" fill="#ffb69f"/>
                  <path id="Path_1005722" data-name="Path 1005722" d="M159.763,50.32a1.688,1.688,0,0,1-1.689,1.689h-.684a5.49,5.49,0,0,0,.091-1.023V48.629h.594A1.689,1.689,0,0,1,159.763,50.32Z" transform="translate(-143.451 -46.085)" fill="#ffb69f"/>
                  <path id="Path_1005723" data-name="Path 1005723" d="M109.327,35.576v4.9a5.489,5.489,0,0,1-.091,1.023,5.871,5.871,0,0,1-11.564,0,5.434,5.434,0,0,1-.091-1.023v-4.9Z" transform="translate(-95.297 -35.576)" fill="#ffb69f"/>
                </g>
                <path id="Path_1005724" data-name="Path 1005724" d="M109.623,5.478,108.56,4.75a2.016,2.016,0,0,1-1.98,1.64h-6.336a2.667,2.667,0,0,0-2.666,2.666v1.7h11.746l.735-.746a2.97,2.97,0,0,0-.436-4.534Z" transform="translate(-90.842 -4.75)" fill="#7c7b7a"/>
                <path id="Path_1005725" data-name="Path 1005725" d="M99.934,35.578,97.578,38.9V35.578Z" transform="translate(-90.842 -29.571)" fill="#afafaf"/>
                <path id="Path_1005726" data-name="Path 1005726" d="M148.108,35.578V38.9l-2.36-3.323Z" transform="translate(-129.625 -29.571)" fill="#afafaf"/>
                <path id="Path_1005727" data-name="Path 1005727" d="M113.023,88.934a6.509,6.509,0,0,1-9.523,0l1.491-.452v-2.6l6.454,0v2.6l1.576.452Z" transform="translate(-95.61 -70.071)" fill="#ffb69f"/>
                <path id="Path_1005728" data-name="Path 1005728" d="M88.34,107.675H63.01l.238-1.364.144-.826a2.863,2.863,0,0,1,1.99-2.255l5.517-1.68h0a6.509,6.509,0,0,0,9.523,0l5.661,1.721a2.858,2.858,0,0,1,1.875,2.214l.144.826Z" transform="translate(-63.01 -82.687)" fill="#72c3e9"/>
                <path id="Path_1005729" data-name="Path 1005729" d="M88.34,127.344H63.01l.238-1.364H88.1Z" transform="translate(-63.01 -102.357)" fill="#4ba5c8"/>
              </g>
            </g>
            <path id="Path_1005730" data-name="Path 1005730" d="M52.326,133.954v21.1a.975.975,0,0,1-.974.974H4.974A.975.975,0,0,1,4,155.052v-21.1a.975.975,0,0,1,.974-.974H6.412v.735a1.363,1.363,0,0,0,1.364,1.364h4.287a1.364,1.364,0,0,0,1.364-1.364v-.735H42.9v.735a1.364,1.364,0,0,0,1.364,1.364H48.55a1.363,1.363,0,0,0,1.364-1.364v-.735h1.438A.975.975,0,0,1,52.326,133.954Z" transform="translate(-2.013 -105.255)" fill="#efefef"/>
            <path id="Path_1005731" data-name="Path 1005731" d="M19.734,132.98v.735a2.537,2.537,0,0,1-2.533,2.533H12.913a2.536,2.536,0,0,1-2.533-2.533v-.735h1.169v.735a1.363,1.363,0,0,0,1.364,1.364H17.2a1.364,1.364,0,0,0,1.364-1.364v-.735Z" transform="translate(-7.15 -105.255)" fill="#afafaf"/>
            <path id="Path_1005732" data-name="Path 1005732" d="M206.973,132.98v.735a2.536,2.536,0,0,1-2.533,2.533h-4.287a2.537,2.537,0,0,1-2.533-2.533v-.735h1.169v.735a1.364,1.364,0,0,0,1.364,1.364h4.287a1.363,1.363,0,0,0,1.364-1.364v-.735Z" transform="translate(-157.903 -105.255)" fill="#afafaf"/>
            <path id="Path_1005733" data-name="Path 1005733" d="M50.063,172.566a1.169,1.169,0,0,1-1.169,1.169H23.169A1.169,1.169,0,0,1,22,172.566v-12.4a1.169,1.169,0,0,1,2.338,0V171.4H48.894A1.169,1.169,0,0,1,50.063,172.566Z" transform="translate(-16.505 -126.205)" fill="#72c3e9"/>
            <path id="Path_1005734" data-name="Path 1005734" d="M91.537,185.316H87.38v-8.054a.974.974,0,0,1,.974-.974h2.208a.974.974,0,0,1,.974.974Z" transform="translate(-69.145 -140.124)" fill="#f0c020"/>
            <path id="Path_1005735" data-name="Path 1005735" d="M57.709,196.511H53.552v-5.345a.974.974,0,0,1,.974-.974h2.208a.974.974,0,0,1,.974.974Z" transform="translate(-41.909 -151.319)" fill="#fc5d3d"/>
            <path id="Path_1005736" data-name="Path 1005736" d="M125.365,176.027h-4.157v-10.3a.974.974,0,0,1,.974-.974h2.208a.974.974,0,0,1,.974.974Z" transform="translate(-96.381 -130.834)" fill="#13bf6d"/>
            <g id="Group_1181563" data-name="Group 1181563" transform="translate(4.4 24.901)">
              <path id="Path_1005737" data-name="Path 1005737" d="M210.635,119.854v2.194a1.363,1.363,0,0,1-1.364,1.364h-4.287a1.364,1.364,0,0,1-1.364-1.364v-2.194a1.366,1.366,0,0,1,1.364-1.364h4.287A1.364,1.364,0,0,1,210.635,119.854Z" transform="translate(-167.134 -118.49)" fill="#ffb69f"/>
              <path id="Path_1005738" data-name="Path 1005738" d="M23.4,119.854v2.194a1.364,1.364,0,0,1-1.364,1.364H17.744a1.363,1.363,0,0,1-1.364-1.364v-2.194a1.364,1.364,0,0,1,1.364-1.364h4.287A1.366,1.366,0,0,1,23.4,119.854Z" transform="translate(-16.38 -118.49)" fill="#ffb69f"/>
            </g>
            <g id="Group_1181564" data-name="Group 1181564" transform="translate(13.367 30.704)">
              <path id="Path_1005739" data-name="Path 1005739" d="M66.567,150.754c-.8-.264-1.622-.494-2.084-2.486-.426,1.835-1.109,2.164-2.084,2.486a2.768,2.768,0,0,1,2.084,2.486C64.918,151.362,65.64,151.061,66.567,150.754Z" transform="translate(-62.398 -148.268)" fill="#f0c020"/>
            </g>
            <g id="Group_1181565" data-name="Group 1181565" transform="translate(33.805 39.546)">
              <path id="Path_1005740" data-name="Path 1005740" d="M171.452,196.132c-.8-.264-1.622-.494-2.084-2.486-.426,1.835-1.109,2.164-2.084,2.486a2.768,2.768,0,0,1,2.084,2.486C169.8,196.74,170.525,196.439,171.452,196.132Z" transform="translate(-167.283 -193.646)" fill="#f0c020"/>
            </g>
            <path id="Path_1005741" data-name="Path 1005741" d="M55.806,168.6h-.893a.487.487,0,1,1,0-.974h.893a.487.487,0,1,1,0,.974Zm-2.842,0H10.987a.487.487,0,0,1-.487-.487V150.654a.487.487,0,1,1,.974,0v16.969h41.49a.487.487,0,1,1,0,.974Z" transform="translate(-7.246 -119.093)" fill="#fff"/>
            <path id="Path_1005742" data-name="Path 1005742" d="M98.987,191.208a.487.487,0,0,1-.487-.487v-4.9a.487.487,0,0,1,.974,0v4.9A.487.487,0,0,1,98.987,191.208Zm0-6.844a.487.487,0,0,1-.487-.487v-.39a.487.487,0,1,1,.974,0v.39A.487.487,0,0,1,98.987,184.364Z" transform="translate(-78.098 -145.528)" fill="#f8e5b0"/>
            <path id="Path_1005743" data-name="Path 1005743" d="M65.654,202.443a.487.487,0,0,1-.487-.487V199.78a.487.487,0,0,1,.974,0v2.176A.487.487,0,0,1,65.654,202.443Zm0-4.124a.487.487,0,0,1-.487-.487v-.39a.487.487,0,0,1,.974,0v.39A.487.487,0,0,1,65.654,198.318Z" transform="translate(-51.261 -156.763)" fill="#ffcbc3"/>
            <path id="Path_1005744" data-name="Path 1005744" d="M133.154,183.156a.487.487,0,0,1-.487-.487v-6.844a.487.487,0,0,1,.974,0v6.844A.487.487,0,0,1,133.154,183.156Zm0-8.792a.487.487,0,0,1-.487-.487v-.39a.487.487,0,0,1,.974,0v.39A.487.487,0,0,1,133.154,174.364Z" transform="translate(-105.607 -137.477)" fill="#76ffbb"/>
            <path id="Path_1005745" data-name="Path 1005745" d="M116.468,68.565a2.316,2.316,0,0,0,4.336,0,.49.49,0,0,0-.286-.628.5.5,0,0,0-.628.287,1.34,1.34,0,0,1-2.508,0,.5.5,0,0,0-.626-.287.487.487,0,0,0-.288.624Z" transform="translate(-92.541 -52.866)"/>
            <path id="Path_1005746" data-name="Path 1005746" d="M112.162,49.319v-.346a.487.487,0,1,0-.974,0v.346a.487.487,0,0,0,.974,0Z" transform="translate(-88.314 -37.226)"/>
            <path id="Path_1005747" data-name="Path 1005747" d="M139.725,49.806a.487.487,0,0,0,.487-.487v-.346a.487.487,0,1,0-.974,0v.346A.487.487,0,0,0,139.725,49.806Z" transform="translate(-110.898 -37.226)"/>
            <path id="Path_1005748" data-name="Path 1005748" d="M125.7,52.812a.487.487,0,0,0,.487-.487V50.747a.487.487,0,0,0-.974,0v1.578A.487.487,0,0,0,125.7,52.812Z" transform="translate(-99.606 -38.654)"/>
            <path id="Path_1005749" data-name="Path 1005749" d="M122.2,11.157a.487.487,0,1,0,.487-.487A.487.487,0,0,0,122.2,11.157Z" transform="translate(-97.18 -6.779)"/>
            <path id="Path_1005750" data-name="Path 1005750" d="M62.019,125.09a.488.488,0,1,0-.4-.565A.488.488,0,0,0,62.019,125.09Z" transform="translate(-48.4 -98.123)"/>
            <path id="Path_1005751" data-name="Path 1005751" d="M170.208,170.07a.487.487,0,0,0-.487-.487h-8.509a.487.487,0,0,0-.226.056l-5.835,3.053a.487.487,0,1,0,.452.863l5.729-3h8.39A.487.487,0,0,0,170.208,170.07Z" transform="translate(-123.499 -134.726)"/>
            <path id="Path_1005752" data-name="Path 1005752" d="M199.868,181.917H192.82a.487.487,0,1,0,0,.974h7.048a.487.487,0,0,0,0-.974Z" transform="translate(-153.646 -144.656)"/>
            <path id="Path_1005753" data-name="Path 1005753" d="M199.868,194.25H192.82a.487.487,0,1,0,0,.974h7.048a.487.487,0,0,0,0-.974Z" transform="translate(-153.646 -154.586)"/>
            <path id="Path_1005754" data-name="Path 1005754" d="M192.82,226.224h7.048a.487.487,0,0,0,0-.974H192.82a.487.487,0,1,0,0,.974Z" transform="translate(-153.646 -179.545)"/>
            <circle id="Ellipse_13866" data-name="Ellipse 13866" cx="0.487" cy="0.487" r="0.487" transform="translate(41.322 50.284)"/>
            <path id="Path_1005755" data-name="Path 1005755" d="M21.156,156.5a1.658,1.658,0,0,0-1.656,1.656v12.4a1.658,1.658,0,0,0,1.656,1.656H46.881a1.656,1.656,0,1,0,0-3.313H43.963v-9.815A1.463,1.463,0,0,0,42.5,157.62H40.294a1.463,1.463,0,0,0-1.461,1.461V168.9H37.372V161.33a1.463,1.463,0,0,0-1.461-1.462H33.7a1.463,1.463,0,0,0-1.461,1.462V168.9H30.78V164.04a1.463,1.463,0,0,0-1.461-1.461H27.11a1.463,1.463,0,0,0-1.461,1.461V168.9H22.813V158.156A1.658,1.658,0,0,0,21.156,156.5Zm18.65,2.582a.488.488,0,0,1,.487-.487H42.5a.488.488,0,0,1,.487.487V168.9H39.806Zm-6.592,2.248a.488.488,0,0,1,.487-.487H35.91a.488.488,0,0,1,.487.487V168.9H33.215Zm-6.592,2.709a.488.488,0,0,1,.487-.487h2.208a.488.488,0,0,1,.487.487V168.9H26.623Zm20.259,5.832a.682.682,0,1,1,0,1.364H21.156a.683.683,0,0,1-.682-.682v-12.4a.682.682,0,0,1,1.364,0v11.228a.487.487,0,0,0,.487.487Z" transform="translate(-14.492 -124.192)"/>
            <path id="Path_1005756" data-name="Path 1005756" d="M62,151.338a.487.487,0,0,0,.949,0c.39-1.681.966-1.871,1.762-2.134a.488.488,0,0,0,0-.925c-.763-.252-1.363-.413-1.763-2.134a.487.487,0,0,0-.949,0c-.39,1.681-.966,1.871-1.763,2.134a.488.488,0,0,0,0,.925C61.61,149.658,61.765,150.326,62,151.338Zm.476-3.622a2.713,2.713,0,0,0,.889,1.031,2.634,2.634,0,0,0-.879.995,2.756,2.756,0,0,0-.928-.988A2.642,2.642,0,0,0,62.476,147.716Z" transform="translate(-47.023 -115.551)"/>
            <path id="Path_1005757" data-name="Path 1005757" d="M166.885,196.716a.487.487,0,0,0,.949,0c.39-1.681.966-1.871,1.762-2.134a.488.488,0,0,0,0-.925c-.763-.252-1.363-.413-1.763-2.134a.487.487,0,0,0-.949,0c-.39,1.681-.966,1.871-1.763,2.134a.488.488,0,0,0,0,.925C166.495,195.036,166.65,195.7,166.885,196.716Zm.476-3.622a2.713,2.713,0,0,0,.889,1.031,2.634,2.634,0,0,0-.879.995,2.755,2.755,0,0,0-.928-.988A2.64,2.64,0,0,0,167.361,193.094Z" transform="translate(-131.47 -152.087)"/>
            <g id="Group_1181566" data-name="Group 1181566" transform="translate(1.5 2.25)">
              <path id="Path_1005758" data-name="Path 1005758" d="M49.339,27.238h-.951v-.972a1.853,1.853,0,0,0-1.851-1.851H42.25A1.853,1.853,0,0,0,40.4,26.265v.972H39.226l-.312-1.787a3.354,3.354,0,0,0-2.194-2.59c-6.937-2.108-5.193-1.587-6.912-2.079V18.8a6.329,6.329,0,0,0,2.465-3.648h.288a2.177,2.177,0,1,0,0-4.353h-.105V8.942l.592-.6a3.456,3.456,0,0,0-.507-5.279L31.48,2.336a.487.487,0,0,0-.754.31,1.53,1.53,0,0,1-1.5,1.245H27.456a.487.487,0,1,0,0,.974l1.767,0A2.488,2.488,0,0,0,31.453,3.5l.54.368a2.483,2.483,0,0,1,.364,3.788l-.592.6H20.708l0-1.214a2.188,2.188,0,0,1,2.179-2.181h.67a.486.486,0,1,0,0-.972h-.67a3.154,3.154,0,0,0-3.153,3.153V10.8h-.107a2.177,2.177,0,0,0,0,4.353h.292a6.377,6.377,0,0,0,2.459,3.652v1.982s-.409.122-2.974.9a.488.488,0,1,0,.283.933l1.545-.472a6.961,6.961,0,0,0,4.885,2.005h.008a7.026,7.026,0,0,0,4.911-2.005l5.372,1.632a2.4,2.4,0,0,1,1.546,1.835l.282,1.619H14.065l.282-1.619a2.375,2.375,0,0,1,1.62-1.863.486.486,0,0,0,.315-.612.492.492,0,0,0-.612-.316,3.339,3.339,0,0,0-2.282,2.625l-.312,1.785H11.9v-.972a1.853,1.853,0,0,0-1.851-1.851H5.764a1.853,1.853,0,0,0-1.851,1.851v.972H2.961A1.465,1.465,0,0,0,1.5,28.7V49.8a1.465,1.465,0,0,0,1.461,1.461h36.9a.487.487,0,1,0,0-.974H2.961a.487.487,0,0,1-.487-.487V28.7a.487.487,0,0,1,.487-.487h.951v.247a1.853,1.853,0,0,0,1.851,1.851h4.287A1.853,1.853,0,0,0,11.9,28.459v-.247H40.4v.247a1.853,1.853,0,0,0,1.851,1.851h4.287a1.853,1.853,0,0,0,1.851-1.851v-.247h.951a.487.487,0,0,1,.487.487V49.8a.487.487,0,0,1-.487.487H43.758a.487.487,0,1,0,0,.974h5.581A1.465,1.465,0,0,0,50.8,49.8V28.7a1.465,1.465,0,0,0-1.461-1.461ZM32.454,13.644V12.071s0-.292,0-.3h.105a1.2,1.2,0,0,1,0,2.4h-.129c.012-.05.021-.477.021-.536Zm-12.7.536h-.129a1.2,1.2,0,0,1,0-2.4h.107v1.869c0,.25.021.533.021.536Zm-8.829,14.28a.878.878,0,0,1-.877.877H9.538V27.5a.487.487,0,0,0-.974,0v1.832H7.247V27.5a.486.486,0,1,0-.972,0v1.832H5.764a.878.878,0,0,1-.877-.877V26.265a.878.878,0,0,1,.877-.877h4.287a.878.878,0,0,1,.877.877ZM31.48,9.232V10.54l-.928-1.308Zm-10.77,0h.926l-.926,1.306Zm0,4.412V12.221l2.12-2.989h6.528l2.122,2.989v1.423a5.385,5.385,0,1,1-10.77,0Zm2.3,7.97a.487.487,0,0,0,.345-.466V19.387a6.34,6.34,0,0,0,5.48,0v1.764a.488.488,0,0,0,.353.468l.744.214a6.041,6.041,0,0,1-3.808,1.352h0a5.971,5.971,0,0,1-3.8-1.36Zm24.4,6.846a.878.878,0,0,1-.877.877h-.511V27.5a.487.487,0,0,0-.974,0v1.832H43.737V27.5a.487.487,0,0,0-.974,0v1.832H42.25a.878.878,0,0,1-.877-.877V26.265a.878.878,0,0,1,.877-.877h4.287a.878.878,0,0,1,.877.877Z" transform="translate(-1.5 -2.25)"/>
              <path id="Path_1005759" data-name="Path 1005759" d="M82.672,105.768a.488.488,0,1,0-.608-.325A.488.488,0,0,0,82.672,105.768Z" transform="translate(-66.348 -84.828)"/>
            </g>
          </g>
        </g>
        <path id="Path_1006060" data-name="Path 1006060" d="M-57.116-5.1H-62.09V0h-3.085V-12.8h8.561v2.382H-62.09v2.944h4.975ZM-50.867.176a4.889,4.889,0,0,1-3.542-1.305,4.507,4.507,0,0,1-1.354-3.4v-.246a5.84,5.84,0,0,1,.541-2.575,3.955,3.955,0,0,1,1.578-1.727,4.763,4.763,0,0,1,2.461-.611,4.117,4.117,0,0,1,3.164,1.244,4.887,4.887,0,0,1,1.16,3.467v1.151h-5.889a2.135,2.135,0,0,0,.694,1.257,2.066,2.066,0,0,0,1.389.457,2.662,2.662,0,0,0,2.2-.984l1.354,1.6A3.784,3.784,0,0,1-48.683-.277,5.3,5.3,0,0,1-50.867.176ZM-51.2-7.4q-1.3,0-1.547,1.723h2.988v-.229a1.467,1.467,0,0,0-.36-1.1A1.434,1.434,0,0,0-51.2-7.4Zm9.554,5.291a1.317,1.317,0,0,0,.967-.338,1.241,1.241,0,0,0,.334-.945h2.777A3.288,3.288,0,0,1-38.689-.826a4.168,4.168,0,0,1-2.887,1,4.22,4.22,0,0,1-3.27-1.3,5.125,5.125,0,0,1-1.2-3.6v-.123A5.792,5.792,0,0,1-45.51-7.4a3.872,3.872,0,0,1,1.534-1.7A4.573,4.573,0,0,1-41.6-9.686a4.116,4.116,0,0,1,2.944,1.028,3.647,3.647,0,0,1,1.09,2.786h-2.777A1.626,1.626,0,0,0-40.707-7a1.244,1.244,0,0,0-.967-.4q-1.151,0-1.345,1.468a10.357,10.357,0,0,0-.062,1.283,4.068,4.068,0,0,0,.343,1.986A1.187,1.187,0,0,0-41.647-2.109ZM-33.42-8.49a2.964,2.964,0,0,1,2.426-1.2,2.956,2.956,0,0,1,2.373.932A4.186,4.186,0,0,1-27.8-6V0h-2.971V-5.933a1.674,1.674,0,0,0-.308-1.112A1.322,1.322,0,0,0-32.128-7.4a1.424,1.424,0,0,0-1.292.58V0h-2.962V-13.5h2.962ZM-20.8,0a3.344,3.344,0,0,1-.281-.853A2.754,2.754,0,0,1-23.366.176a3.374,3.374,0,0,1-2.285-.813,2.588,2.588,0,0,1-.94-2.043,2.66,2.66,0,0,1,1.143-2.338,5.821,5.821,0,0,1,3.322-.791h.914v-.5q0-1.316-1.134-1.316A.927.927,0,0,0-23.4-6.587h-2.962a2.655,2.655,0,0,1,1.173-2.239,4.931,4.931,0,0,1,2.993-.86,4.323,4.323,0,0,1,2.874.888,3.086,3.086,0,0,1,1.081,2.435v4.21a4.311,4.311,0,0,0,.4,2V0Zm-1.854-1.934a1.652,1.652,0,0,0,.918-.237,1.487,1.487,0,0,0,.523-.536V-4.228h-.861q-1.547,0-1.547,1.389a.848.848,0,0,0,.272.655A.986.986,0,0,0-22.654-1.934ZM-8.1-2.109a1.317,1.317,0,0,0,.967-.338A1.241,1.241,0,0,0-6.8-3.393h2.777A3.288,3.288,0,0,1-5.142-.826a4.168,4.168,0,0,1-2.887,1,4.22,4.22,0,0,1-3.27-1.3,5.125,5.125,0,0,1-1.2-3.6v-.123A5.792,5.792,0,0,1-11.962-7.4a3.872,3.872,0,0,1,1.534-1.7,4.573,4.573,0,0,1,2.373-.593A4.116,4.116,0,0,1-5.111-8.657a3.647,3.647,0,0,1,1.09,2.786H-6.8A1.626,1.626,0,0,0-7.159-7a1.244,1.244,0,0,0-.967-.4q-1.151,0-1.345,1.468a10.357,10.357,0,0,0-.062,1.283,4.068,4.068,0,0,0,.343,1.986A1.187,1.187,0,0,0-8.1-2.109Zm4.957-2.733a5.613,5.613,0,0,1,.554-2.536A3.96,3.96,0,0,1-1-9.088a4.791,4.791,0,0,1,2.435-.6A4.373,4.373,0,0,1,4.8-8.363a5.076,5.076,0,0,1,1.23,3.6v.105A4.925,4.925,0,0,1,4.8-1.129,4.384,4.384,0,0,1,1.455.176,4.434,4.434,0,0,1-1.806-1.042a4.761,4.761,0,0,1-1.327-3.3Zm2.962.185A3.538,3.538,0,0,0,.233-2.725a1.376,1.376,0,0,0,1.222.615q1.582,0,1.617-2.435v-.3Q3.072-7.4,1.437-7.4-.048-7.4-.171-5.194ZM10.138-9.51l.1,1.116a3.27,3.27,0,0,1,2.716-1.292,2.407,2.407,0,0,1,2.435,1.433A3.165,3.165,0,0,1,18.18-9.686q2.892,0,2.971,3.5V0H18.18V-6a1.813,1.813,0,0,0-.246-1.063,1.048,1.048,0,0,0-.9-.334,1.4,1.4,0,0,0-1.31.782l.009.123V0H12.766V-5.985a1.906,1.906,0,0,0-.237-1.081,1.045,1.045,0,0,0-.905-.334,1.42,1.42,0,0,0-1.3.782V0H7.361V-9.51ZM25.967,0H23V-9.51h2.971ZM22.821-11.962A1.322,1.322,0,0,1,23.278-13a1.724,1.724,0,0,1,1.187-.4,1.724,1.724,0,0,1,1.187.4,1.322,1.322,0,0,1,.457,1.037,1.322,1.322,0,0,1-.457,1.037,1.724,1.724,0,0,1-1.187.4,1.724,1.724,0,0,1-1.187-.4A1.322,1.322,0,0,1,22.821-11.962ZM32.392.176A4.889,4.889,0,0,1,28.85-1.129a4.507,4.507,0,0,1-1.354-3.4v-.246a5.84,5.84,0,0,1,.541-2.575,3.955,3.955,0,0,1,1.578-1.727,4.763,4.763,0,0,1,2.461-.611A4.117,4.117,0,0,1,35.24-8.442,4.887,4.887,0,0,1,36.4-4.975v1.151H30.511a2.135,2.135,0,0,0,.694,1.257,2.066,2.066,0,0,0,1.389.457,2.662,2.662,0,0,0,2.2-.984l1.354,1.6A3.784,3.784,0,0,1,34.576-.277,5.3,5.3,0,0,1,32.392.176ZM32.058-7.4q-1.3,0-1.547,1.723H33.5v-.229a1.467,1.467,0,0,0-.36-1.1A1.434,1.434,0,0,0,32.058-7.4ZM40.311-9.51l.1,1.116a3.225,3.225,0,0,1,2.716-1.292,2.713,2.713,0,0,1,2.219.888,4.226,4.226,0,0,1,.76,2.672V0H43.132V-6a1.6,1.6,0,0,0-.29-1.059A1.342,1.342,0,0,0,41.788-7.4a1.413,1.413,0,0,0-1.292.686V0H37.534V-9.51ZM51.236-2.285h4.333V0H47.492V-1.652L51.71-7.225H47.676V-9.51h7.8v1.6Zm5.256-2.558a5.613,5.613,0,0,1,.554-2.536,3.96,3.96,0,0,1,1.591-1.709,4.791,4.791,0,0,1,2.435-.6,4.373,4.373,0,0,1,3.366,1.323,5.076,5.076,0,0,1,1.23,3.6v.105a4.925,4.925,0,0,1-1.235,3.529A4.384,4.384,0,0,1,61.088.176a4.434,4.434,0,0,1-3.261-1.217,4.761,4.761,0,0,1-1.327-3.3Zm2.962.185a3.538,3.538,0,0,0,.413,1.934,1.376,1.376,0,0,0,1.222.615q1.582,0,1.617-2.435v-.3q0-2.558-1.635-2.558-1.485,0-1.608,2.206ZM-35.618,19.9h-4.975V25h-3.085V12.2h8.561v2.382h-5.476v2.944h4.975Zm6.249,5.273a4.889,4.889,0,0,1-3.542-1.305,4.507,4.507,0,0,1-1.354-3.4v-.246a5.84,5.84,0,0,1,.541-2.575,3.955,3.955,0,0,1,1.578-1.727,4.763,4.763,0,0,1,2.461-.611,4.117,4.117,0,0,1,3.164,1.244,4.887,4.887,0,0,1,1.16,3.467v1.151H-31.25a2.135,2.135,0,0,0,.694,1.257,2.066,2.066,0,0,0,1.389.457,2.662,2.662,0,0,0,2.2-.984l1.354,1.6a3.784,3.784,0,0,1-1.569,1.217A5.3,5.3,0,0,1-29.369,25.176ZM-29.7,17.6q-1.3,0-1.547,1.723h2.988v-.229a1.467,1.467,0,0,0-.36-1.1A1.434,1.434,0,0,0-29.7,17.6Zm9.554,5.291a1.317,1.317,0,0,0,.967-.338,1.241,1.241,0,0,0,.334-.945h2.777a3.288,3.288,0,0,1-1.121,2.566,4.168,4.168,0,0,1-2.887,1,4.22,4.22,0,0,1-3.27-1.3,5.125,5.125,0,0,1-1.2-3.6v-.123a5.792,5.792,0,0,1,.532-2.544,3.872,3.872,0,0,1,1.534-1.7,4.573,4.573,0,0,1,2.373-.593,4.116,4.116,0,0,1,2.944,1.028,3.647,3.647,0,0,1,1.09,2.786h-2.777A1.626,1.626,0,0,0-19.208,18a1.244,1.244,0,0,0-.967-.4q-1.151,0-1.345,1.468a10.357,10.357,0,0,0-.062,1.283,4.068,4.068,0,0,0,.343,1.986A1.187,1.187,0,0,0-20.149,22.891Zm8.227-6.381a2.964,2.964,0,0,1,2.426-1.2,2.956,2.956,0,0,1,2.373.932A4.186,4.186,0,0,1-6.306,19v6H-9.277V19.067a1.674,1.674,0,0,0-.308-1.112A1.322,1.322,0,0,0-10.63,17.6a1.424,1.424,0,0,0-1.292.58V25h-2.962V11.5h2.962ZM.7,25a3.344,3.344,0,0,1-.281-.853,2.754,2.754,0,0,1-2.285,1.028,3.374,3.374,0,0,1-2.285-.813,2.588,2.588,0,0,1-.94-2.043,2.66,2.66,0,0,1,1.143-2.338A5.821,5.821,0,0,1-.628,19.19H.286v-.5q0-1.316-1.134-1.316A.927.927,0,0,0-1.9,18.413H-4.865a2.655,2.655,0,0,1,1.173-2.239A4.931,4.931,0,0,1-.7,15.314a4.323,4.323,0,0,1,2.874.888,3.086,3.086,0,0,1,1.081,2.435v4.21a4.311,4.311,0,0,0,.4,2V25Zm-1.854-1.934a1.652,1.652,0,0,0,.918-.237,1.487,1.487,0,0,0,.523-.536V20.772H-.576q-1.547,0-1.547,1.389a.848.848,0,0,0,.272.655A.986.986,0,0,0-1.156,23.066ZM10.068,25V17.547H8.688V15.49h1.38v-.316a3.631,3.631,0,0,1,1.248-2.909,4.987,4.987,0,0,1,3.243-.949,11.509,11.509,0,0,1,3.094.51l-.4,2.338-.492-.132a7.832,7.832,0,0,0-2.021-.255q-1.7,0-1.7,1.547v.167H14.9v2.057H13.039V25Zm8.947,0H16.036V15.49h2.979Zm4.526-9.51.1,1.116a3.225,3.225,0,0,1,2.716-1.292,2.713,2.713,0,0,1,2.219.888,4.226,4.226,0,0,1,.76,2.672V25H26.363V19a1.6,1.6,0,0,0-.29-1.059,1.342,1.342,0,0,0-1.055-.338,1.413,1.413,0,0,0-1.292.686V25H20.764V15.49ZM36.33,25a3.344,3.344,0,0,1-.281-.853,2.754,2.754,0,0,1-2.285,1.028,3.374,3.374,0,0,1-2.285-.813,2.588,2.588,0,0,1-.94-2.043,2.66,2.66,0,0,1,1.143-2.338A5.821,5.821,0,0,1,35,19.19h.914v-.5q0-1.316-1.134-1.316a.927.927,0,0,0-1.055,1.042H30.766a2.655,2.655,0,0,1,1.173-2.239,4.931,4.931,0,0,1,2.993-.86,4.323,4.323,0,0,1,2.874.888,3.086,3.086,0,0,1,1.081,2.435v4.21a4.311,4.311,0,0,0,.4,2V25Zm-1.854-1.934a1.652,1.652,0,0,0,.918-.237,1.487,1.487,0,0,0,.523-.536V20.772h-.861q-1.547,0-1.547,1.389a.848.848,0,0,0,.272.655A.986.986,0,0,0,34.475,23.066ZM43.651,25H40.68V11.5h2.971ZM-43.563,50h-3.076V37.2h3.076Zm4.729-9.51.1,1.116a3.225,3.225,0,0,1,2.716-1.292A2.713,2.713,0,0,1-33.8,41.2a4.226,4.226,0,0,1,.76,2.672V50h-2.971V44a1.6,1.6,0,0,0-.29-1.059,1.342,1.342,0,0,0-1.055-.338,1.413,1.413,0,0,0-1.292.686V50h-2.962V40.49Zm7.058,4.685a5.809,5.809,0,0,1,.976-3.56,3.211,3.211,0,0,1,2.725-1.3,2.731,2.731,0,0,1,2.145,1V36.5h2.971V50h-2.663l-.149-1.02a2.8,2.8,0,0,1-2.32,1.2,3.205,3.205,0,0,1-2.689-1.3A5.993,5.993,0,0,1-31.777,45.175Zm2.962.185q0,2.531,1.477,2.531a1.458,1.458,0,0,0,1.406-.826V43.443a1.419,1.419,0,0,0-1.389-.844q-1.371,0-1.485,2.215ZM-18.154,50h-2.971V40.49h2.971ZM-21.3,38.038A1.322,1.322,0,0,1-20.843,37a1.724,1.724,0,0,1,1.187-.4,1.724,1.724,0,0,1,1.187.4,1.322,1.322,0,0,1,.457,1.037,1.322,1.322,0,0,1-.457,1.037,1.724,1.724,0,0,1-1.187.4,1.724,1.724,0,0,1-1.187-.4A1.322,1.322,0,0,1-21.3,38.038Zm8.991,9.853a1.317,1.317,0,0,0,.967-.338,1.241,1.241,0,0,0,.334-.945h2.777a3.288,3.288,0,0,1-1.121,2.566,4.168,4.168,0,0,1-2.887,1,4.22,4.22,0,0,1-3.27-1.3,5.125,5.125,0,0,1-1.2-3.6v-.123a5.792,5.792,0,0,1,.532-2.544,3.872,3.872,0,0,1,1.534-1.7,4.573,4.573,0,0,1,2.373-.593,4.116,4.116,0,0,1,2.944,1.028,3.647,3.647,0,0,1,1.09,2.786h-2.777A1.626,1.626,0,0,0-11.369,43a1.244,1.244,0,0,0-.967-.4q-1.151,0-1.345,1.468a10.357,10.357,0,0,0-.062,1.283,4.068,4.068,0,0,0,.343,1.986A1.187,1.187,0,0,0-12.309,47.891ZM-1.622,50a3.344,3.344,0,0,1-.281-.853,2.754,2.754,0,0,1-2.285,1.028,3.374,3.374,0,0,1-2.285-.813,2.588,2.588,0,0,1-.94-2.043,2.66,2.66,0,0,1,1.143-2.338,5.821,5.821,0,0,1,3.322-.791h.914v-.5q0-1.316-1.134-1.316a.927.927,0,0,0-1.055,1.042H-7.185a2.655,2.655,0,0,1,1.173-2.239,4.931,4.931,0,0,1,2.993-.86A4.323,4.323,0,0,1-.145,41.2,3.086,3.086,0,0,1,.936,43.637v4.21a4.311,4.311,0,0,0,.4,2V50Zm-1.854-1.934a1.652,1.652,0,0,0,.918-.237,1.487,1.487,0,0,0,.523-.536V45.772H-2.9q-1.547,0-1.547,1.389a.848.848,0,0,0,.272.655A.986.986,0,0,0-3.476,48.066ZM2.2,45.175a5.809,5.809,0,0,1,.976-3.56,3.211,3.211,0,0,1,2.725-1.3,2.731,2.731,0,0,1,2.145,1V36.5h2.971V50H8.354L8.2,48.98a2.8,2.8,0,0,1-2.32,1.2,3.205,3.205,0,0,1-2.689-1.3A5.993,5.993,0,0,1,2.2,45.175Zm2.962.185q0,2.531,1.477,2.531a1.458,1.458,0,0,0,1.406-.826V43.443A1.419,1.419,0,0,0,6.658,42.6q-1.371,0-1.485,2.215Zm7.163-.2a5.613,5.613,0,0,1,.554-2.536,3.96,3.96,0,0,1,1.591-1.709,4.791,4.791,0,0,1,2.435-.6,4.373,4.373,0,0,1,3.366,1.323,5.076,5.076,0,0,1,1.23,3.6v.105a4.925,4.925,0,0,1-1.235,3.529,4.384,4.384,0,0,1-3.344,1.305,4.434,4.434,0,0,1-3.261-1.217,4.761,4.761,0,0,1-1.327-3.3Zm2.962.185a3.538,3.538,0,0,0,.413,1.934,1.376,1.376,0,0,0,1.222.615q1.582,0,1.617-2.435v-.3q0-2.558-1.635-2.558-1.485,0-1.608,2.206ZM28.56,43.171l-.976-.07a1.752,1.752,0,0,0-1.793.879V50H22.83V40.49h2.777l.1,1.222a2.294,2.294,0,0,1,2.083-1.4,2.888,2.888,0,0,1,.826.105Zm5.669,7a4.889,4.889,0,0,1-3.542-1.305,4.507,4.507,0,0,1-1.354-3.4v-.246a5.84,5.84,0,0,1,.541-2.575,3.955,3.955,0,0,1,1.578-1.727,4.763,4.763,0,0,1,2.461-.611,4.117,4.117,0,0,1,3.164,1.244,4.887,4.887,0,0,1,1.16,3.467v1.151H32.348a2.135,2.135,0,0,0,.694,1.257,2.066,2.066,0,0,0,1.389.457,2.662,2.662,0,0,0,2.2-.984l1.354,1.6a3.784,3.784,0,0,1-1.569,1.217A5.3,5.3,0,0,1,34.229,50.176ZM33.9,42.6q-1.3,0-1.547,1.723h2.988v-.229a1.467,1.467,0,0,0-.36-1.1A1.434,1.434,0,0,0,33.9,42.6Zm10.512,4.729a.684.684,0,0,0-.4-.606,6.016,6.016,0,0,0-1.5-.475A6.853,6.853,0,0,1,40.68,45.6a3.062,3.062,0,0,1-1.1-.971,2.319,2.319,0,0,1-.378-1.31,2.628,2.628,0,0,1,1.081-2.158,4.453,4.453,0,0,1,2.83-.848,4.934,4.934,0,0,1,3.023.853,2.666,2.666,0,0,1,1.143,2.241H44.31q0-1.143-1.2-1.143a1.194,1.194,0,0,0-.782.259.8.8,0,0,0-.316.646.737.737,0,0,0,.387.642,3.654,3.654,0,0,0,1.235.4,10.671,10.671,0,0,1,1.49.378,2.706,2.706,0,0,1,2.145,2.646,2.491,2.491,0,0,1-1.156,2.118,5.068,5.068,0,0,1-2.993.817,5.172,5.172,0,0,1-2.18-.439,3.645,3.645,0,0,1-1.494-1.2A2.707,2.707,0,0,1,38.9,46.95h2.769a1.145,1.145,0,0,0,.439.962,1.808,1.808,0,0,0,1.081.3,1.422,1.422,0,0,0,.91-.246A.787.787,0,0,0,44.407,47.328ZM-20.246,62.2l2.856,8.9,2.848-8.9h4.061V75h-3.094V72.012l.3-6.117L-16.37,75h-2.039l-3.1-9.114.3,6.126V75H-24.3V62.2ZM-4.056,75.176A4.889,4.889,0,0,1-7.6,73.871a4.507,4.507,0,0,1-1.354-3.4v-.246a5.84,5.84,0,0,1,.541-2.575,3.955,3.955,0,0,1,1.578-1.727,4.763,4.763,0,0,1,2.461-.611,4.117,4.117,0,0,1,3.164,1.244,4.887,4.887,0,0,1,1.16,3.467v1.151H-5.937a2.135,2.135,0,0,0,.694,1.257,2.066,2.066,0,0,0,1.389.457,2.662,2.662,0,0,0,2.2-.984l1.354,1.6a3.784,3.784,0,0,1-1.569,1.217A5.3,5.3,0,0,1-4.056,75.176ZM-4.39,67.6q-1.3,0-1.547,1.723h2.988v-.229a1.467,1.467,0,0,0-.36-1.1A1.434,1.434,0,0,0-4.39,67.6Zm8.982-4.474V65.49H6.157v2.057H4.592V71.9a1.111,1.111,0,0,0,.193.747,1.037,1.037,0,0,0,.765.211,4.345,4.345,0,0,0,.738-.053v2.118a5.466,5.466,0,0,1-1.67.255,3.1,3.1,0,0,1-2.259-.721,2.954,2.954,0,0,1-.729-2.188v-4.72H.417V65.49H1.63V63.126ZM12.678,75a3.344,3.344,0,0,1-.281-.853,2.754,2.754,0,0,1-2.285,1.028,3.374,3.374,0,0,1-2.285-.813,2.588,2.588,0,0,1-.94-2.043,2.66,2.66,0,0,1,1.143-2.338,5.821,5.821,0,0,1,3.322-.791h.914v-.5q0-1.316-1.134-1.316a.927.927,0,0,0-1.055,1.042H7.115a2.655,2.655,0,0,1,1.173-2.239,4.931,4.931,0,0,1,2.993-.86,4.323,4.323,0,0,1,2.874.888,3.086,3.086,0,0,1,1.081,2.435v4.21a4.311,4.311,0,0,0,.4,2V75Zm-1.854-1.934a1.652,1.652,0,0,0,.918-.237,1.487,1.487,0,0,0,.523-.536V70.772H11.4q-1.547,0-1.547,1.389a.848.848,0,0,0,.272.655A.986.986,0,0,0,10.824,73.066Zm11.03-.738a.684.684,0,0,0-.4-.606,6.016,6.016,0,0,0-1.5-.475,6.853,6.853,0,0,1-1.828-.646,3.062,3.062,0,0,1-1.1-.971,2.319,2.319,0,0,1-.378-1.31,2.628,2.628,0,0,1,1.081-2.158,4.453,4.453,0,0,1,2.83-.848,4.934,4.934,0,0,1,3.023.853,2.666,2.666,0,0,1,1.143,2.241H21.757q0-1.143-1.2-1.143a1.194,1.194,0,0,0-.782.259.8.8,0,0,0-.316.646.737.737,0,0,0,.387.642,3.654,3.654,0,0,0,1.235.4,10.671,10.671,0,0,1,1.49.378A2.706,2.706,0,0,1,24.71,72.24a2.491,2.491,0,0,1-1.156,2.118,5.068,5.068,0,0,1-2.993.817,5.172,5.172,0,0,1-2.18-.439,3.645,3.645,0,0,1-1.494-1.2,2.707,2.707,0,0,1-.536-1.591h2.769a1.145,1.145,0,0,0,.439.962,1.808,1.808,0,0,0,1.081.3,1.422,1.422,0,0,0,.91-.246A.787.787,0,0,0,21.854,72.328Z" transform="translate(800.35 10029)" fill="#12263f"/>
      </g>
      <path id="Path_1005760" data-name="Path 1005760" d="M-6542.21-1624v35.747h-172.5v15.291" transform="translate(7342.06 11700)" fill="none" stroke="#fcae57" stroke-linecap="round" stroke-width="3"/>
      <path id="Path_1005761" data-name="Path 1005761" d="M-6538-1588.253h173v14.139" transform="translate(7338.35 11700)" fill="none" stroke="#fcae57" stroke-linecap="round" stroke-width="3"/>
    </g>
  </g>
</svg>
