<svg xmlns="http://www.w3.org/2000/svg" width="40" height="40" viewBox="0 0 40 40">
  <g id="img58" transform="translate(-15.999 -16)">
    <path id="Path_1005972" data-name="Path 1005972" d="M80.667,160a.667.667,0,0,0-.667.667v6.667a.667.667,0,0,0,.667.667h2.667a.667.667,0,0,0,.667-.667v-6.667a.667.667,0,0,0-.667-.667Zm2,6.667H81.333v-5.333h1.333Z" transform="translate(-58.667 -132)" fill="#283760"/>
    <path id="Path_1005973" data-name="Path 1005973" d="M16.667,168a.667.667,0,0,0-.667.667v6a.667.667,0,0,0,.667.667h2.667a.667.667,0,0,0,.667-.667v-6a.667.667,0,0,0-.667-.667Zm2,6H17.333v-4.667h1.333Z" transform="translate(0 -139.333)" fill="#283760"/>
    <path id="Path_1005974" data-name="Path 1005974" d="M23.333,400H16.667a.667.667,0,0,0-.667.667A7.342,7.342,0,0,0,23.333,408a.667.667,0,0,0,.667-.667v-6.667A.667.667,0,0,0,23.333,400Zm-.667,6.63a6.012,6.012,0,0,1-5.3-5.3h5.3Z" transform="translate(0 -352)" fill="#283760"/>
    <path id="Path_1005975" data-name="Path 1005975" d="M84.667,42.667A.667.667,0,0,0,85.333,42V16.667A.667.667,0,0,0,84.667,16H67.333a.667.667,0,0,0-.667.667V29.522a10.584,10.584,0,0,0-1.333.345v-7.2A.667.667,0,0,0,64.667,22H62a.667.667,0,0,0-.667.667v9.595A10.752,10.752,0,0,0,60,33.789V27.333a.667.667,0,0,0-.667-.667H56.667a.667.667,0,0,0-.667.667v8a.667.667,0,0,0,.667.667h2.112a10.584,10.584,0,0,0-.748,3.181A7.333,7.333,0,0,0,48,46a.667.667,0,0,0,.667.667h6v6a.667.667,0,0,0,.667.667A7.359,7.359,0,0,0,62.228,48.5a10.645,10.645,0,0,0,12.819.044l6.872,6.872a2,2,0,0,0,2.828-2.828l-7-7A10.607,10.607,0,0,0,79,42.667Zm-26-8H57.333V28h1.333ZM68,17.333H84v24H79.25A10.715,10.715,0,0,0,79.333,40H82a.667.667,0,0,0,0-1.333H79.249a10.6,10.6,0,0,0-.255-1.333H82A.667.667,0,0,0,82,36H78.554a10.633,10.633,0,0,0-.654-1.333H82a.667.667,0,0,0,0-1.333H76.986a10.746,10.746,0,0,0-3.161-2.667h.841a.667.667,0,0,0,0-1.333h-6c-.224,0-.446.008-.667.021Zm-5.333,6H64V30.41a10.67,10.67,0,0,0-1.333.776Zm-13.3,22a5.971,5.971,0,0,1,1.278-3.075l3.075,3.075ZM56,51.963V46a.665.665,0,0,0-.2-.471h0l-4.214-4.214a5.993,5.993,0,0,1,6.428-.681,10.636,10.636,0,0,0,3.113,6.909A6.02,6.02,0,0,1,56,51.963Zm27.8,1.566a.667.667,0,1,1-.943.943l-6.8-6.8a10.765,10.765,0,0,0,.9-.984Zm-15.138-4.2A9.333,9.333,0,1,1,78,40,9.333,9.333,0,0,1,68.667,49.333Z" transform="translate(-29.334)" fill="#283760"/>
    <path id="Path_1005976" data-name="Path 1005976" d="M208,208a8,8,0,1,0,8,8A8,8,0,0,0,208,208Zm0,14.667A6.667,6.667,0,1,1,214.667,216,6.667,6.667,0,0,1,208,222.667Z" transform="translate(-168.667 -176)" fill="#283760"/>
    <path id="Path_1005977" data-name="Path 1005977" d="M237.333,300.667a4,4,0,0,1-4-4,.667.667,0,1,0-1.333,0A5.339,5.339,0,0,0,237.333,302a.667.667,0,0,0,0-1.333Z" transform="translate(-198.001 -256.667)" fill="#283760"/>
    <path id="Path_1005978" data-name="Path 1005978" d="M304.667,49.333h12a.667.667,0,0,0,0-1.333h-12a.667.667,0,0,0,0,1.333Z" transform="translate(-264.001 -29.333)" fill="#283760"/>
    <path id="Path_1005979" data-name="Path 1005979" d="M304.667,81.333h12a.667.667,0,0,0,0-1.333h-12a.667.667,0,0,0,0,1.333Z" transform="translate(-264.001 -58.667)" fill="#283760"/>
    <path id="Path_1005980" data-name="Path 1005980" d="M304.667,113.333h4.667a.667.667,0,0,0,0-1.333h-4.667a.667.667,0,0,0,0,1.333Z" transform="translate(-264.001 -88)" fill="#283760"/>
    <path id="Path_1005981" data-name="Path 1005981" d="M304.667,145.333h4.667a.667.667,0,0,0,0-1.333h-4.667a.667.667,0,0,0,0,1.333Z" transform="translate(-264.001 -117.333)" fill="#283760"/>
    <path id="Path_1005982" data-name="Path 1005982" d="M397.333,112h-4.667a.667.667,0,0,0-.667.667v6.667a.667.667,0,0,0,.667.667h4.667a.667.667,0,0,0,.667-.667v-6.667A.667.667,0,0,0,397.333,112Zm-.667,6.667h-3.333v-5.333h3.333Z" transform="translate(-344.667 -88)" fill="#283760"/>
    <path id="Path_1005983" data-name="Path 1005983" d="M16.666,27.333a.665.665,0,0,0,.471-.2L18.471,25.8a2,2,0,0,0,2.747-1.138h2.229a2,2,0,1,0,3.69-1.528L28.471,21.8a2,2,0,0,0,2.747-1.138h1.448a.667.667,0,0,0,.521-.25l1.479-1.849v.1a.667.667,0,1,0,1.333,0v-2A.667.667,0,0,0,35.333,16h-2a.667.667,0,0,0,0,1.333h.613l-1.6,2H31.218a2,2,0,1,0-3.69,1.528L26.195,22.2a2,2,0,0,0-2.747,1.138H21.218a2,2,0,1,0-3.69,1.528L16.195,26.2a.667.667,0,0,0,.471,1.138Zm12.667-8a.667.667,0,1,1-.667.667A.667.667,0,0,1,29.333,19.333Zm-4,4a.667.667,0,1,1-.667.667A.667.667,0,0,1,25.333,23.333Zm-6,0a.667.667,0,1,1-.667.667A.667.667,0,0,1,19.333,23.333Z" fill="#283760"/>
  </g>
</svg>
