<svg xmlns="http://www.w3.org/2000/svg" width="38.761" height="40" viewBox="0 0 38.761 40">
  <g id="img59" transform="translate(-24 -16)">
    <path id="Path_1005984" data-name="Path 1005984" d="M61.333,174A14,14,0,0,0,34,169.723a5.317,5.317,0,0,0-5.521.943H24.667a.667.667,0,0,0-.667.667v16a.667.667,0,0,0,.667.667H50a.667.667,0,0,0,.6-.385,13.953,13.953,0,0,0,3.772-1.517l1.07,1.6A.667.667,0,0,0,56,188h3.333a.667.667,0,0,0,.6-.965l-1.964-3.928q.086-.1.17-.2A14.022,14.022,0,0,0,61.333,174Zm-14-12.667a12.668,12.668,0,0,1,3.335,24.889l0-1.388a11.335,11.335,0,1,0-14.386-13.345,5.379,5.379,0,0,0-1.093-1.1A12.658,12.658,0,0,1,47.333,161.333Zm-22,21.333h9.333V184H25.333Zm9.333-1.333H25.333V180h9.333Zm-9.333-4h2.051a5.37,5.37,0,0,0,1.094,1.333H25.333Zm1.5-1.333h-1.5v-1.333h1.333A5.327,5.327,0,0,0,26.835,176Zm20.5-10a.667.667,0,0,0,.667-.667v-1.311a10.014,10.014,0,0,1,9.311,9.311H56a.667.667,0,1,0,0,1.333h1.309a10.009,10.009,0,0,1-6.642,8.764v-4.1a.667.667,0,0,0-.667-.667H38.488a10,10,0,0,1-1.132-4h1.311a.667.667,0,1,0,0-1.333H37.356a10.014,10.014,0,0,1,9.311-9.311v1.311A.667.667,0,0,0,47.333,166ZM36.541,177.46A11.29,11.29,0,0,0,37,178.667H35.522a5.374,5.374,0,0,0,1.019-1.207ZM49.333,180v1.333H40V180ZM40,182.667h9.333V184H40Zm-8-12a4,4,0,1,1-4,4A4,4,0,0,1,32,170.667ZM27.384,172a5.3,5.3,0,0,0-.549,1.333h-1.5V172Zm-2.051,13.333h9.333v1.333H25.333ZM36,186.667V180h2.667v6.667Zm4,0v-1.333h9.333v1.333Zm16.357,0-.862-1.294a14.067,14.067,0,0,0,1.495-1.238l1.266,2.531Z" transform="translate(0 -132)" fill="#283760"/>
    <path id="Path_1005985" data-name="Path 1005985" d="M24.67,34.667a.665.665,0,0,0,.471-.2L31.808,27.8a2,2,0,0,0,1.723,0l.333.333a19.377,19.377,0,0,0-1.816,2.026.667.667,0,0,0,.056.88l1.9,1.9a.667.667,0,0,0,.471.2l.049,0a.667.667,0,0,0,.487-.268,15.334,15.334,0,0,1,6.914-5.226.667.667,0,0,0,.236-1.1l-1.218-1.219,4.2-4.2a2,2,0,0,0,1.724,0L48.2,22.471a.667.667,0,0,0,.943,0l4.2-4.2v1.057a.667.667,0,0,0,1.333,0V16.667A.667.667,0,0,0,54,16H51.337a.667.667,0,0,0,0,1.333h1.057L48.67,21.057l-.862-.862a2,2,0,1,0-3.609,0l-4.212,4.212a.665.665,0,0,0-.608-.032,19.363,19.363,0,0,0-4.526,2.864l-.378-.378a2,2,0,1,0-3.609,0L24.2,33.528a.667.667,0,0,0,.471,1.138ZM46,18.667a.667.667,0,1,1-.667.667A.667.667,0,0,1,46,18.667Zm-6.491,7.118,1,1a16.656,16.656,0,0,0-6.1,4.682l-.947-.947a18.123,18.123,0,0,1,6.042-4.738Zm-6.842-.452A.667.667,0,1,1,32,26a.667.667,0,0,1,.667-.667Z" transform="translate(-0.003)" fill="#283760"/>
    <path id="Path_1005986" data-name="Path 1005986" d="M104,308a164767.041,164767.041,0,0,1,1.333,1.333.667.667,0,0,0,.667-.667v-.18a1.332,1.332,0,0,0-.667-2.486H106a1.054,1.054,0,1,0-1.333-1.333v.18a1.332,1.332,0,0,0,.667,2.486h-.667A.667.667,0,0,0,104,308Z" transform="translate(-73.331 -264)" fill="#283760"/>
    <path id="Path_1005987" data-name="Path 1005987" d="M280.189,258.471a.667.667,0,0,0,.943,0l.2-.2v1.839a2,2,0,1,0,2.552,2.552h2.505l-.2.2a.667.667,0,1,0,.943.943l1.333-1.333c.016-.016.03-.032.045-.049l.017-.022c.008-.01.015-.02.022-.03s.011-.019.017-.028l.017-.028c.005-.009.01-.02.014-.03l.013-.029c0-.01.007-.02.011-.03s.008-.021.011-.031.005-.02.008-.031.006-.022.008-.033,0-.024.005-.036,0-.019,0-.028a.67.67,0,0,0,0-.132c0-.01,0-.019,0-.028s0-.024-.005-.036-.005-.022-.008-.033,0-.02-.008-.031l-.011-.031c0-.01-.007-.02-.011-.03s-.009-.019-.013-.029-.009-.02-.014-.03l-.017-.028-.017-.028c-.006-.009-.015-.02-.022-.03l-.017-.022c-.014-.017-.029-.033-.045-.049l-1.333-1.333a.667.667,0,0,0-.943.943l.2.2h-2.505a2.01,2.01,0,0,0-1.219-1.219v-1.839l.2.2a.667.667,0,0,0,.943-.943l-1.333-1.333a.667.667,0,0,0-.943,0l-1.333,1.333A.667.667,0,0,0,280.189,258.471Zm1.8,4.2a.667.667,0,1,1,.667-.667A.667.667,0,0,1,281.994,262.666Z" transform="translate(-234.661 -220)" fill="#283760"/>
    <path id="Path_1005988" data-name="Path 1005988" d="M376.668,122.8a19.471,19.471,0,0,0-7.093-5.679.667.667,0,0,0-.754.132l-2.028,2.028a.667.667,0,0,0,.226,1.092,15.351,15.351,0,0,1,6.684,5.136.667.667,0,0,0,.486.268l.049,0a.667.667,0,0,0,.471-.2l1.9-1.9a.667.667,0,0,0,.056-.88Zm-2.368,1.307a16.683,16.683,0,0,0-5.871-4.577l1-1a18.147,18.147,0,0,1,5.819,4.628Z" transform="translate(-314.047 -92.638)" fill="#283760"/>
  </g>
</svg>
